<?xml version="1.0" encoding="UTF-8" standalone="no"?>
<svg width="164px" height="53px" viewBox="0 0 164 53" version="1.1" xmlns="http://www.w3.org/2000/svg" xmlns:xlink="http://www.w3.org/1999/xlink">
    <!-- Generator: Sketch 41.2 (35397) - http://www.bohemiancoding.com/sketch -->
    <title>Group 2</title>
    <desc>Created with Sketch.</desc>
    <defs></defs>
    <g id="wireframe-1920px" stroke="none" stroke-width="1" fill="none" fill-rule="evenodd">
        <g id="Group-2">
            <path d="M17.1353085,52.2508418 C9.58377243,52.2508418 0.128472648,47.8298843 0.128472648,37.7714179 L0.128472648,22.6518373 C0.128472648,12.5930086 9.58377243,8.17313793 17.1353085,8.17313793 C25.0055142,8.17313793 32.8107659,12.2104362 33.6339956,20.345172 C33.6339956,21.8830696 33.1265646,22.2033291 31.6677899,22.2033291 L25.5757462,22.2033291 C24.2418556,22.2033291 24.1786958,20.9864155 23.6712648,20.2169233 C22.3398862,18.1040802 20.5610066,17.143664 17.1353085,17.143664 C12.9477462,17.143664 10.0922801,19.5130045 10.0922801,23.5488537 L10.0922801,36.8744015 C10.0922801,40.9754619 12.9477462,43.2792289 17.1353085,43.2792289 C20.5610066,43.2792289 23.2908709,42.0000024 23.7986608,38.9234825 C23.9899344,37.6449806 24.1162538,36.6175418 25.5100744,36.6175418 L31.7323851,36.6175418 C33.1265646,36.6175418 33.6339956,37.2591476 33.6339956,38.7959584 C33.6339956,47.0607543 25.0055142,52.2508418 17.1353085,52.2508418" id="Shape" fill="#FFFFFF"></path>
            <path d="M77.1657681,38.9876069 C77.1657681,47.1241541 70.8835274,51.2882519 62.0616193,51.2882519 L43.4058118,51.2882519 C41.9463195,51.2882519 41.5659256,50.5828841 41.5659256,49.4297325 L41.5659256,10.929036 C41.5659256,9.7755222 41.9463195,9.07015431 43.4058118,9.07015431 L61.1737943,9.07015431 C71.5190722,9.07015431 75.9603501,14.6439011 75.9603501,20.6668806 C75.9603501,27.1361946 71.8973129,29.1870871 71.327081,29.4417731 C71.834512,29.6348707 77.1657681,32.0690601 77.1657681,38.9876069 M67.0745646,38.0268284 C67.0745646,35.0158821 64.8535667,34.1195903 61.8089803,34.1195903 L60.349488,34.1195903 C58.8899956,34.1195903 58.5074486,33.4142224 58.5074486,32.2621578 L58.5074486,27.3923297 C58.5074486,26.2384537 58.8899956,25.5356218 60.349488,25.5356218 L61.1737943,25.5356218 C64.8535667,25.5356218 66.4415317,24.1900972 66.4415317,21.6910588 C66.4415317,18.8083612 64.4731729,18.1040802 61.1737943,18.1040802 L51.5286565,18.1040802 L51.5286565,42.1931 L62.1893742,42.1931 C65.2985558,42.1931 67.0745646,40.9095261 67.0745646,38.0268284" id="Shape" fill="#FFFFFF"></path>
            <path d="M117.969112,10.929036 L104.89684,35.4654772 L104.89684,49.4293703 C104.89684,50.9042304 104.197059,51.2882519 103.055877,51.2882519 L96.7083239,51.2882519 C95.5029059,51.2882519 94.8687965,50.9042304 94.8687965,49.4293703 L94.8687965,35.4654772 L81.2880175,10.929036 C80.9700656,10.2229435 81.0996149,9.13464095 82.3032385,9.13464095 L89.6021357,9.13464095 C91.0605514,9.13464095 91.6957374,9.32556487 92.5842801,11.0565601 L100.010573,24.8302539 L107.180998,11.0565601 C108.003869,9.32556487 108.639772,9.13464095 110.099982,9.13464095 L116.953891,9.13464095 C118.15572,9.13464095 118.28491,10.2229435 117.969112,10.929036" id="Shape" fill="#FFFFFF"></path>
            <path d="M158.261077,49.2388086 L144.618214,26.5590754 L154.799133,15.6575731 C154.799133,15.6575731 154.797339,15.6550371 154.795545,15.6550371 L154.799133,15.6550371 L154.797339,9.07305259 L148.086617,9.07305259 L148.083387,9.07703772 L148.083387,9.07305259 C147.93733,9.21796638 133.38547,25.2791244 133.38547,25.2791244 L133.38547,10.9927981 C133.38547,9.52011164 132.687842,9.13500323 131.611615,9.13500323 L125.326862,9.13500323 C124.120368,9.13500323 123.487694,9.52011164 123.487694,10.9927981 L123.487694,49.4297325 C123.487694,50.9045927 124.120368,51.2886142 125.326862,51.2886142 L131.611615,51.2886142 C132.687842,51.2886142 133.38547,50.9045927 133.38547,49.4297325 L133.38547,38.0271907 L137.320753,33.8630929 C140.748604,39.6292127 146.3953,49.2388086 146.3953,49.2388086 C147.21853,50.5832463 148.045348,51.2886142 149.566565,51.2886142 L157.310451,51.2886142 C158.516228,51.2886142 158.768867,50.0709761 158.261077,49.2388086" id="Shape" fill="#FFFFFF"></path>
            <polygon id="Shape" fill="#D4441C" points="163.785042 17.1298972 159.295676 17.1298972 159.295676 4.54485884 146.828805 4.54485884 146.828805 0.0134045259 163.785042 0.0134045259"></polygon>
        </g>
    </g>
</svg>