<?xml version="1.0" encoding="utf-8"?>
<!-- Generator: Adobe Illustrator 28.3.0, SVG Export Plug-In . SVG Version: 6.00 Build 0)  -->
<svg version="1.1" id="Camada_1" xmlns="http://www.w3.org/2000/svg" xmlns:xlink="http://www.w3.org/1999/xlink" x="0px" y="0px"
	 viewBox="0 0 118.46 148.46" style="enable-background:new 0 0 118.46 148.46;" xml:space="preserve">
<style type="text/css">
	.st0{display:none;fill:#010202;}
	.st1{fill:#010202;}
	.st2{fill:#020203;}
	.st3{fill:#EC681D;}
	.st4{fill:#FFFFFF;}
</style>
<rect x="-7.35" y="-464.62" class="st0" width="130.12" height="148.42"/>
<rect x="-4.39" y="-234.46" class="st0" width="127.15" height="148.82"/>
<rect x="-7.35" y="-3.44" class="st0" width="130.92" height="156.08"/>
<rect x="-554.76" y="-480.56" class="st1" width="436.37" height="100.08"/>
<rect x="-559.9" y="-268.1" class="st1" width="441.5" height="106.18"/>
<rect x="-559.9" y="-59.2" class="st1" width="441.08" height="112.16"/>
<rect x="-559.9" y="161.86" class="st1" width="441.5" height="103.5"/>
<g>
	<g>
		<g>
			<path class="st2" d="M32.17-778.91c17,1.26,34.36-5.22,46.42-19.05c8.07-9.25,12.56-20.39,13.6-31.75
				c0.52-5.68,0.17-11.41-1.03-16.97c-1.23-5.69-3.34-11.22-6.33-16.35l1.82-0.94c3.24,5.27,5.55,10.98,6.89,16.88
				c1.32,5.79,1.72,11.77,1.17,17.7c-1.04,11.33-5.53,22.45-13.59,31.68C68.45-783.2,49.96-776.78,32.17-778.91z"/>
			<path class="st2" d="M10.26-798.79c18.67,13.08,44.58,10.23,59.9-7.33c6.36-7.28,9.96-16.03,10.89-24.97l1.73,0.21l0,0
				c-0.76,9.28-4.39,18.4-10.98,25.95C56.02-786.84,29.02-784.35,10.26-798.79z"/>
			<path class="st2" d="M17.86-788.15c19.28,7.66,42.11,2.83,56.52-13.69c7.26-8.32,11.29-18.34,12.21-28.55
				c0.46-5.13,0.13-10.29-0.96-15.32l1.73-0.3c1.26,5.19,1.69,10.55,1.27,15.87c-0.81,10.42-4.86,20.67-12.26,29.14
				C61.46-783.91,37.53-779.32,17.86-788.15z"/>
			<path class="st2" d="M58.07-776.34c9.25-3.5,17.79-9.27,24.75-17.24c9-10.31,13.98-22.75,15.09-35.42
				c0.54-6.24,0.14-12.53-1.18-18.64c-1.36-6.25-3.67-12.31-6.95-17.96c-3.2-5.52-7.31-10.64-12.32-15.12l1.58-1.49l0.15,0.13
				c5.19,4.53,9.45,9.73,12.75,15.36c3.43,5.85,5.84,12.16,7.2,18.65c1.33,6.35,1.67,12.88,0.99,19.34
				c-1.29,12.28-6.24,24.3-14.98,34.31C77.61-785.77,68.21-779.72,58.07-776.34z"/>
			<path class="st2" d="M90.6-893.12c-0.33-0.3-0.66-0.6-1-0.89c-6.19-5.4-12.98-9.68-20.11-12.84c-7.91-3.51-16.24-5.65-24.66-6.45
				c-8.34-0.8-16.76-0.28-24.93,1.53l-0.35-1.76c8.39-1.82,17.03-2.29,25.58-1.4c8.58,0.9,17.06,3.17,25.09,6.85
				c6.89,3.16,13.46,7.35,19.46,12.59c0.59,0.52,1.18,1.04,1.76,1.58c6.27,5.8,11.41,12.37,15.42,19.45
				c4.19,7.4,7.13,15.35,8.79,23.53c1.63,7.98,2.05,16.17,1.23,24.28c-1.59,15.85-7.88,31.38-19.02,44.37
				c11.08-13,17.27-28.56,18.71-44.41c0.73-8.07,0.24-16.22-1.47-24.14c-1.74-8.09-4.75-15.93-9-23.23
				C102.05-881.01,96.88-887.45,90.6-893.12z"/>
			<path class="st2" d="M86.4-889.15l-0.08-0.07c-6.1-5.32-12.84-9.46-19.92-12.41c-7.31-3.05-14.98-4.85-22.72-5.41l0.44-2.42
				c7.97,0.69,15.87,2.68,23.36,6c6.62,2.93,12.92,6.89,18.65,11.9c0.49,0.43,0.97,0.86,1.45,1.3c5.92,5.44,10.75,11.63,14.47,18.31
				c3.86,6.92,6.54,14.36,8,22.01c1.01,5.28,1.44,10.65,1.29,16.02c0.02-5.36-0.56-10.71-1.71-15.95c-1.65-7.53-4.5-14.83-8.51-21.6
				C97.28-877.95,92.37-883.93,86.4-889.15z"/>
			<path class="st2" d="M85.14-787.08c0.9-0.92,1.78-1.87,2.64-2.86c9.73-11.15,15.13-24.6,16.33-38.29
				c0.6-6.85,0.15-13.75-1.33-20.46c-1.51-6.84-4.09-13.48-7.73-19.64c-3.51-5.95-8.01-11.46-13.47-16.27
				c-0.08-0.07-0.16-0.14-0.24-0.21c-5.57-4.86-11.71-8.64-18.17-11.35l1.17-1.98c6.67,2.73,13.02,6.59,18.76,11.59
				c0.09,0.08,0.19,0.17,0.28,0.25c5.64,4.98,10.25,10.69,13.8,16.87c3.68,6.4,6.24,13.29,7.65,20.39
				c1.37,6.91,1.66,14.01,0.84,21.01c-1.52,13.02-6.85,25.74-16.13,36.37C88.13-790.05,86.66-788.53,85.14-787.08z"/>
		</g>
		<g>
			<path class="st2" d="M32.16-778.92c17,1.26,34.36-5.22,46.42-19.05c8.07-9.25,12.56-20.39,13.6-31.75
				c0.52-5.68,0.17-11.41-1.03-16.97c-1.23-5.69-3.34-11.22-6.33-16.35l1.82-0.94c3.24,5.27,5.55,10.98,6.89,16.88
				c1.32,5.79,1.72,11.77,1.17,17.7c-1.04,11.33-5.53,22.45-13.59,31.68C68.44-783.22,49.94-776.8,32.16-778.92z"/>
			<path class="st2" d="M10.24-798.81c18.67,13.08,44.58,10.23,59.9-7.33c6.36-7.28,9.96-16.03,10.89-24.97l1.73,0.21l0,0
				c-0.76,9.28-4.39,18.4-10.98,25.95C56.01-786.85,29-784.37,10.24-798.81z"/>
			<path class="st2" d="M17.84-788.17c19.28,7.66,42.11,2.83,56.52-13.69c7.26-8.32,11.29-18.34,12.21-28.55
				c0.46-5.13,0.13-10.29-0.96-15.32l1.73-0.3c1.26,5.19,1.69,10.55,1.27,15.87c-0.81,10.42-4.86,20.67-12.26,29.14
				C61.44-783.92,37.52-779.34,17.84-788.17z"/>
			<path class="st2" d="M58.05-776.35c9.25-3.5,17.79-9.27,24.75-17.24c9-10.31,13.98-22.75,15.09-35.42
				c0.54-6.24,0.14-12.53-1.18-18.64c-1.36-6.25-3.67-12.31-6.95-17.96c-3.2-5.52-7.31-10.64-12.32-15.12l1.58-1.49l0.15,0.13
				c5.19,4.53,9.45,9.73,12.75,15.36c3.43,5.85,5.84,12.16,7.2,18.65c1.33,6.35,1.67,12.88,0.99,19.34
				c-1.29,12.28-6.24,24.3-14.98,34.31C77.59-785.79,68.19-779.74,58.05-776.35z"/>
			<path class="st2" d="M90.58-893.13c-0.33-0.3-0.66-0.6-1-0.89c-6.19-5.4-12.98-9.68-20.11-12.84
				c-7.91-3.51-16.24-5.65-24.66-6.45c-8.34-0.8-16.76-0.28-24.93,1.53l-0.35-1.76c8.39-1.82,17.03-2.29,25.58-1.4
				c8.58,0.9,17.06,3.17,25.09,6.85c6.89,3.16,13.46,7.35,19.46,12.59c0.59,0.52,1.18,1.04,1.76,1.58
				c6.27,5.8,11.41,12.37,15.42,19.45c4.19,7.4,7.13,15.35,8.79,23.53c1.63,7.98,2.05,16.17,1.23,24.28
				c-1.59,15.85-7.88,31.38-19.02,44.37c11.08-13,17.27-28.56,18.71-44.41c0.73-8.07,0.24-16.22-1.47-24.14
				c-1.74-8.09-4.75-15.93-9-23.23C102.04-881.02,96.86-887.47,90.58-893.13z"/>
			<path class="st2" d="M86.38-889.17l-0.08-0.07c-6.1-5.32-12.84-9.46-19.92-12.41c-7.31-3.05-14.98-4.85-22.72-5.41l0.44-2.42
				c7.97,0.69,15.87,2.68,23.36,6c6.62,2.93,12.92,6.89,18.65,11.9c0.49,0.43,0.97,0.86,1.45,1.3c5.92,5.44,10.75,11.63,14.47,18.31
				c3.86,6.92,6.54,14.36,8,22.01c1.01,5.28,1.44,10.65,1.29,16.02c0.02-5.36-0.56-10.71-1.71-15.95c-1.65-7.53-4.5-14.83-8.51-21.6
				C97.27-877.96,92.35-883.95,86.38-889.17z"/>
			<path class="st2" d="M85.13-787.1c0.9-0.92,1.78-1.87,2.64-2.86c9.73-11.15,15.13-24.6,16.33-38.29
				c0.6-6.85,0.15-13.75-1.33-20.46c-1.51-6.84-4.09-13.48-7.73-19.64c-3.51-5.95-8.01-11.46-13.47-16.27
				c-0.08-0.07-0.16-0.14-0.24-0.21c-5.57-4.86-11.71-8.64-18.17-11.35l1.17-1.98c6.67,2.73,13.02,6.59,18.76,11.59
				c0.09,0.08,0.19,0.17,0.28,0.25c5.64,4.98,10.25,10.69,13.8,16.87c3.68,6.4,6.24,13.29,7.65,20.39
				c1.37,6.91,1.66,14.01,0.84,21.01c-1.52,13.02-6.85,25.74-16.13,36.37C88.12-790.07,86.65-788.54,85.13-787.1z"/>
		</g>
	</g>
	<g>
		<polygon class="st3" points="26.09,-850.21 28.95,-844.59 62.54,-874.71 		"/>
		<polygon class="st3" points="59.48,-868.38 28.54,-841.43 14.86,-863.38 5.88,-863.48 26.09,-829.07 		"/>
		<polygon class="st3" points="52.54,-856.54 31.1,-820.91 28.03,-826.73 		"/>
	</g>
</g>
<g>
	<g>
		<g>
			<path class="st1" d="M32.17-552.13c17,1.26,34.36-5.22,46.42-19.05c8.07-9.25,12.56-20.39,13.6-31.75
				c0.52-5.68,0.17-11.41-1.03-16.97c-1.23-5.69-3.34-11.22-6.33-16.35l1.82-0.94c3.24,5.27,5.55,10.98,6.89,16.88
				c1.32,5.79,1.72,11.77,1.17,17.7c-1.04,11.33-5.53,22.45-13.59,31.68C68.45-556.43,49.96-550.01,32.17-552.13z"/>
			<path class="st1" d="M10.26-572.02c18.67,13.08,44.58,10.23,59.9-7.33c6.36-7.28,9.96-16.03,10.89-24.97l1.73,0.22l0,0
				c-0.76,9.28-4.39,18.4-10.98,25.95C56.02-560.06,29.02-557.58,10.26-572.02z"/>
			<path class="st1" d="M17.86-561.38c19.28,7.66,42.11,2.83,56.52-13.69c7.26-8.32,11.29-18.34,12.21-28.55
				c0.46-5.13,0.13-10.29-0.96-15.32l1.73-0.3c1.26,5.19,1.69,10.55,1.27,15.87c-0.81,10.42-4.86,20.67-12.26,29.14
				C61.46-557.14,37.53-552.55,17.86-561.38z"/>
			<path class="st1" d="M58.07-549.57c9.25-3.5,17.79-9.27,24.75-17.24c9-10.31,13.98-22.75,15.09-35.42
				c0.54-6.24,0.14-12.53-1.18-18.64c-1.36-6.25-3.67-12.31-6.95-17.96c-3.2-5.52-7.31-10.64-12.32-15.12l1.58-1.49l0.15,0.13
				c5.19,4.53,9.45,9.73,12.75,15.36c3.43,5.85,5.84,12.16,7.2,18.65c1.33,6.35,1.67,12.88,0.99,19.34
				c-1.29,12.28-6.24,24.3-14.98,34.31C77.61-559,68.21-552.95,58.07-549.57z"/>
			<path class="st1" d="M90.6-666.34c-0.33-0.3-0.66-0.6-1-0.89c-6.19-5.4-12.98-9.68-20.11-12.84c-7.91-3.51-16.24-5.65-24.66-6.45
				c-8.34-0.8-16.76-0.28-24.93,1.53l-0.35-1.76c8.39-1.82,17.03-2.29,25.58-1.4c8.58,0.9,17.06,3.17,25.09,6.85
				c6.89,3.16,13.46,7.35,19.46,12.59c0.59,0.52,1.18,1.04,1.76,1.58c6.27,5.8,11.41,12.37,15.42,19.45
				c4.19,7.4,7.13,15.35,8.79,23.53c1.63,7.98,2.05,16.17,1.23,24.28c-1.59,15.85-7.88,31.38-19.02,44.37
				c11.08-13,17.27-28.56,18.71-44.41c0.73-8.07,0.24-16.22-1.47-24.14c-1.74-8.09-4.75-15.93-9-23.23
				C102.05-654.24,96.88-660.68,90.6-666.34z"/>
			<path class="st1" d="M86.4-662.38l-0.08-0.07c-6.1-5.32-12.84-9.46-19.92-12.41c-7.31-3.05-14.98-4.85-22.72-5.41l0.44-2.42
				c7.97,0.69,15.87,2.68,23.36,6c6.62,2.93,12.92,6.89,18.65,11.9c0.49,0.43,0.97,0.86,1.45,1.3c5.92,5.44,10.75,11.63,14.47,18.31
				c3.86,6.92,6.54,14.36,8,22.01c1.01,5.28,1.44,10.65,1.29,16.02c0.02-5.36-0.56-10.71-1.71-15.95c-1.65-7.53-4.5-14.83-8.51-21.6
				C97.28-651.18,92.37-657.16,86.4-662.38z"/>
			<path class="st1" d="M85.14-560.31c0.9-0.92,1.78-1.87,2.64-2.86c9.73-11.15,15.13-24.6,16.33-38.29
				c0.6-6.85,0.15-13.75-1.33-20.46c-1.51-6.84-4.09-13.48-7.73-19.64c-3.51-5.95-8.01-11.46-13.47-16.27
				c-0.08-0.07-0.16-0.14-0.24-0.21c-5.57-4.86-11.71-8.64-18.17-11.35l1.17-1.98c6.67,2.73,13.02,6.59,18.76,11.59
				c0.09,0.08,0.19,0.17,0.28,0.25c5.64,4.98,10.25,10.69,13.8,16.87c3.68,6.4,6.24,13.29,7.65,20.39
				c1.37,6.91,1.66,14.01,0.84,21.01c-1.52,13.02-6.85,25.74-16.13,36.37C88.13-563.28,86.66-561.75,85.14-560.31z"/>
		</g>
		<g>
			<path class="st1" d="M32.16-552.15c17,1.26,34.36-5.22,46.42-19.05c8.07-9.25,12.56-20.39,13.6-31.75
				c0.52-5.68,0.17-11.41-1.03-16.97c-1.23-5.69-3.34-11.22-6.33-16.35l1.82-0.94c3.24,5.27,5.55,10.98,6.89,16.88
				c1.32,5.79,1.72,11.77,1.17,17.7c-1.04,11.33-5.53,22.45-13.59,31.68C68.44-556.44,49.94-550.03,32.16-552.15z"/>
			<path class="st1" d="M10.24-572.03c18.67,13.08,44.58,10.23,59.9-7.33c6.36-7.28,9.96-16.03,10.89-24.97l1.73,0.22l0,0
				c-0.76,9.28-4.39,18.4-10.98,25.95C56.01-560.08,29-557.6,10.24-572.03z"/>
			<path class="st1" d="M17.84-561.4c19.28,7.66,42.11,2.83,56.52-13.69c7.26-8.32,11.29-18.34,12.21-28.55
				c0.46-5.13,0.13-10.29-0.96-15.32l1.73-0.3c1.26,5.19,1.69,10.55,1.27,15.87c-0.81,10.42-4.86,20.67-12.26,29.14
				C61.44-557.15,37.52-552.57,17.84-561.4z"/>
			<path class="st1" d="M58.05-549.58c9.25-3.5,17.79-9.27,24.75-17.24c9-10.31,13.98-22.75,15.09-35.42
				c0.54-6.24,0.14-12.53-1.18-18.64c-1.36-6.25-3.67-12.31-6.95-17.96c-3.2-5.52-7.31-10.64-12.32-15.12l1.58-1.49l0.15,0.13
				c5.19,4.53,9.45,9.73,12.75,15.36c3.43,5.85,5.84,12.16,7.2,18.65c1.33,6.35,1.67,12.88,0.99,19.34
				c-1.29,12.28-6.24,24.3-14.98,34.31C77.59-559.02,68.19-552.97,58.05-549.58z"/>
			<path class="st1" d="M90.58-666.36c-0.33-0.3-0.66-0.6-1-0.89c-6.19-5.4-12.98-9.68-20.11-12.84
				c-7.91-3.51-16.24-5.65-24.66-6.45c-8.34-0.8-16.76-0.28-24.93,1.53l-0.35-1.76c8.39-1.82,17.03-2.29,25.58-1.4
				c8.58,0.9,17.06,3.17,25.09,6.85c6.89,3.16,13.46,7.35,19.46,12.59c0.59,0.52,1.18,1.04,1.76,1.58
				c6.27,5.8,11.41,12.37,15.42,19.45c4.19,7.4,7.13,15.35,8.79,23.53c1.63,7.98,2.05,16.17,1.23,24.28
				c-1.59,15.85-7.88,31.38-19.02,44.37c11.08-13,17.27-28.56,18.71-44.41c0.73-8.07,0.24-16.22-1.47-24.14
				c-1.74-8.09-4.75-15.93-9-23.23C102.04-654.25,96.86-660.69,90.58-666.36z"/>
			<path class="st1" d="M86.38-662.4l-0.08-0.07c-6.1-5.32-12.84-9.46-19.92-12.41c-7.31-3.05-14.98-4.85-22.72-5.41l0.44-2.42
				c7.97,0.69,15.87,2.68,23.36,6c6.62,2.93,12.92,6.89,18.65,11.9c0.49,0.43,0.97,0.86,1.45,1.3c5.92,5.44,10.75,11.63,14.47,18.31
				c3.86,6.92,6.54,14.36,8,22.01c1.01,5.28,1.44,10.65,1.29,16.02c0.02-5.36-0.56-10.71-1.71-15.95c-1.65-7.53-4.5-14.83-8.51-21.6
				C97.27-651.19,92.35-657.17,86.38-662.4z"/>
			<path class="st1" d="M85.13-560.32c0.9-0.92,1.78-1.87,2.64-2.86c9.73-11.15,15.13-24.6,16.33-38.29
				c0.6-6.85,0.15-13.75-1.33-20.46c-1.51-6.84-4.09-13.48-7.73-19.64c-3.51-5.95-8.01-11.46-13.47-16.27
				c-0.08-0.07-0.16-0.14-0.24-0.21c-5.57-4.86-11.71-8.64-18.17-11.35l1.17-1.98c6.67,2.73,13.02,6.59,18.76,11.59
				c0.09,0.08,0.19,0.17,0.28,0.25c5.64,4.98,10.25,10.69,13.8,16.87c3.68,6.4,6.24,13.29,7.65,20.39
				c1.37,6.91,1.66,14.01,0.84,21.01c-1.52,13.02-6.85,25.74-16.13,36.37C88.12-563.3,86.65-561.77,85.13-560.32z"/>
		</g>
	</g>
	<g>
		<polygon class="st1" points="26.09,-623.44 28.95,-617.82 62.54,-647.94 		"/>
		<polygon class="st1" points="59.48,-641.61 28.54,-614.66 14.86,-636.61 5.88,-636.71 26.09,-602.3 		"/>
		<polygon class="st1" points="52.54,-629.77 31.1,-594.13 28.03,-599.95 		"/>
	</g>
</g>
<g>
	<g>
		<g>
			<path class="st4" d="M31.99-323.04c17,1.26,34.36-5.22,46.42-19.05c8.07-9.25,12.56-20.39,13.6-31.75
				c0.52-5.68,0.17-11.41-1.03-16.97c-1.23-5.69-3.34-11.22-6.33-16.35l1.82-0.94c3.24,5.27,5.55,10.98,6.89,16.88
				c1.32,5.79,1.72,11.77,1.17,17.7c-1.04,11.33-5.53,22.45-13.59,31.68C68.27-327.33,49.78-320.91,31.99-323.04z"/>
			<path class="st4" d="M10.07-342.92c18.67,13.08,44.58,10.23,59.9-7.33c6.36-7.28,9.96-16.03,10.89-24.97L82.6-375l0,0
				c-0.76,9.28-4.39,18.4-10.98,25.95C55.84-330.97,28.84-328.48,10.07-342.92z"/>
			<path class="st4" d="M17.67-332.28c19.28,7.66,42.11,2.83,56.52-13.69c7.26-8.32,11.29-18.34,12.21-28.55
				c0.46-5.13,0.13-10.29-0.96-15.32l1.73-0.3c1.26,5.19,1.69,10.55,1.27,15.87c-0.81,10.42-4.86,20.67-12.26,29.14
				C61.28-328.04,37.35-323.45,17.67-332.28z"/>
			<path class="st4" d="M57.89-320.47c9.25-3.5,17.79-9.27,24.75-17.24c9-10.31,13.98-22.75,15.09-35.42
				c0.54-6.24,0.14-12.53-1.18-18.64c-1.36-6.25-3.67-12.31-6.95-17.96c-3.2-5.52-7.31-10.64-12.32-15.12l1.58-1.49l0.15,0.13
				c5.19,4.53,9.45,9.73,12.75,15.36c3.43,5.85,5.84,12.16,7.2,18.65c1.33,6.35,1.67,12.88,0.99,19.34
				c-1.29,12.28-6.24,24.3-14.98,34.31C77.43-329.9,68.03-323.85,57.89-320.47z"/>
			<path class="st4" d="M90.42-437.25c-0.33-0.3-0.66-0.6-1-0.89c-6.19-5.4-12.98-9.68-20.11-12.84
				c-7.91-3.51-16.24-5.65-24.66-6.45c-8.34-0.8-16.76-0.28-24.93,1.53l-0.35-1.76c8.39-1.82,17.03-2.29,25.58-1.4
				c8.58,0.9,17.06,3.17,25.09,6.85c6.89,3.16,13.46,7.35,19.46,12.59c0.59,0.52,1.18,1.04,1.76,1.58
				c6.27,5.8,11.41,12.37,15.42,19.45c4.19,7.4,7.13,15.35,8.79,23.53c1.63,7.98,2.05,16.17,1.23,24.28
				c-1.59,15.85-7.88,31.38-19.02,44.37c11.08-13,17.27-28.56,18.71-44.41c0.73-8.07,0.24-16.22-1.47-24.14
				c-1.74-8.09-4.75-15.93-9-23.23C101.87-425.14,96.7-431.58,90.42-437.25z"/>
			<path class="st4" d="M86.22-433.28l-0.08-0.07c-6.1-5.32-12.84-9.46-19.92-12.41c-7.31-3.05-14.98-4.85-22.72-5.41l0.44-2.42
				c7.97,0.69,15.87,2.68,23.36,6c6.62,2.93,12.92,6.89,18.65,11.9c0.49,0.43,0.97,0.86,1.45,1.3c5.92,5.44,10.75,11.63,14.47,18.31
				c3.86,6.92,6.54,14.36,8,22.01c1.01,5.28,1.44,10.65,1.29,16.02c0.02-5.36-0.56-10.71-1.71-15.95c-1.65-7.53-4.5-14.83-8.51-21.6
				C97.1-422.08,92.19-428.06,86.22-433.28z"/>
			<path class="st4" d="M84.96-331.21c0.9-0.92,1.78-1.87,2.64-2.86c9.73-11.15,15.13-24.6,16.33-38.29
				c0.6-6.85,0.15-13.75-1.33-20.46c-1.51-6.84-4.09-13.48-7.73-19.64c-3.51-5.95-8.01-11.46-13.47-16.27
				c-0.08-0.07-0.16-0.14-0.24-0.21c-5.57-4.86-11.71-8.64-18.17-11.35l1.17-1.98c6.67,2.73,13.02,6.59,18.76,11.59
				c0.09,0.08,0.19,0.17,0.28,0.25c5.64,4.98,10.25,10.69,13.8,16.87c3.68,6.4,6.24,13.29,7.65,20.39
				c1.37,6.91,1.66,14.01,0.84,21.01c-1.52,13.02-6.85,25.74-16.13,36.37C87.95-334.18,86.48-332.66,84.96-331.21z"/>
		</g>
		<g>
			<path class="st4" d="M31.98-323.05c17,1.26,34.36-5.22,46.42-19.05c8.07-9.25,12.56-20.39,13.6-31.75
				c0.52-5.68,0.17-11.41-1.03-16.97c-1.23-5.69-3.34-11.22-6.33-16.35l1.82-0.94c3.24,5.27,5.55,10.98,6.89,16.88
				c1.32,5.79,1.72,11.77,1.17,17.7c-1.04,11.33-5.53,22.45-13.59,31.68C68.26-327.35,49.76-320.93,31.98-323.05z"/>
			<path class="st4" d="M10.06-342.94c18.67,13.08,44.58,10.23,59.9-7.33c6.36-7.28,9.96-16.03,10.89-24.97l1.73,0.21l0,0
				c-0.76,9.28-4.39,18.4-10.98,25.95C55.82-330.98,28.82-328.5,10.06-342.94z"/>
			<path class="st4" d="M17.66-332.3c19.28,7.66,42.11,2.83,56.52-13.69c7.26-8.32,11.29-18.34,12.21-28.55
				c0.46-5.13,0.13-10.29-0.96-15.32l1.73-0.3c1.26,5.19,1.69,10.55,1.27,15.87c-0.81,10.42-4.86,20.67-12.26,29.14
				C61.26-328.05,37.34-323.47,17.66-332.3z"/>
			<path class="st4" d="M57.87-320.48c9.25-3.5,17.79-9.27,24.75-17.24c9-10.31,13.98-22.75,15.09-35.42
				c0.54-6.24,0.14-12.53-1.18-18.64c-1.36-6.25-3.67-12.31-6.95-17.96c-3.2-5.52-7.31-10.64-12.32-15.12l1.58-1.49l0.15,0.13
				c5.19,4.53,9.45,9.73,12.75,15.36c3.43,5.85,5.84,12.16,7.2,18.65c1.33,6.35,1.67,12.88,0.99,19.34
				c-1.29,12.28-6.24,24.3-14.98,34.31C77.41-329.92,68.01-323.87,57.87-320.48z"/>
			<path class="st4" d="M90.4-437.26c-0.33-0.3-0.66-0.6-1-0.89c-6.19-5.4-12.98-9.68-20.11-12.84c-7.91-3.51-16.24-5.65-24.66-6.45
				c-8.34-0.8-16.76-0.28-24.93,1.53l-0.35-1.76c8.39-1.82,17.03-2.29,25.58-1.4c8.58,0.9,17.06,3.17,25.09,6.85
				c6.89,3.16,13.46,7.35,19.46,12.59c0.59,0.52,1.18,1.04,1.76,1.58c6.27,5.8,11.41,12.37,15.42,19.45
				c4.19,7.4,7.13,15.35,8.79,23.53c1.63,7.98,2.05,16.17,1.23,24.28c-1.59,15.85-7.88,31.38-19.02,44.37
				c11.08-13,17.27-28.56,18.71-44.41c0.73-8.07,0.24-16.22-1.47-24.14c-1.74-8.09-4.75-15.93-9-23.23
				C101.85-425.15,96.68-431.6,90.4-437.26z"/>
			<path class="st4" d="M86.2-433.3l-0.08-0.07c-6.1-5.32-12.84-9.46-19.92-12.41c-7.31-3.05-14.98-4.85-22.72-5.41l0.44-2.42
				c7.97,0.69,15.87,2.68,23.36,6c6.62,2.93,12.92,6.89,18.65,11.9c0.49,0.43,0.97,0.86,1.45,1.3c5.92,5.44,10.75,11.63,14.47,18.31
				c3.86,6.92,6.54,14.36,8,22.01c1.01,5.28,1.44,10.65,1.29,16.02c0.02-5.36-0.56-10.71-1.71-15.95c-1.65-7.53-4.5-14.83-8.51-21.6
				C97.09-422.09,92.17-428.08,86.2-433.3z"/>
			<path class="st4" d="M84.94-331.22c0.9-0.92,1.78-1.87,2.64-2.86c9.73-11.15,15.13-24.6,16.33-38.29
				c0.6-6.85,0.15-13.75-1.33-20.46c-1.51-6.84-4.09-13.48-7.73-19.64c-3.51-5.95-8.01-11.46-13.47-16.27
				c-0.08-0.07-0.16-0.14-0.24-0.21c-5.57-4.86-11.71-8.64-18.17-11.35l1.17-1.98c6.67,2.73,13.02,6.59,18.76,11.59
				c0.09,0.08,0.19,0.17,0.28,0.25c5.64,4.98,10.25,10.69,13.8,16.87c3.68,6.4,6.24,13.29,7.65,20.39
				c1.37,6.91,1.66,14.01,0.84,21.01c-1.52,13.02-6.85,25.74-16.13,36.37C87.94-334.2,86.47-332.67,84.94-331.22z"/>
		</g>
	</g>
	<g>
		<polygon class="st4" points="25.91,-394.34 28.77,-388.72 62.36,-418.84 		"/>
		<polygon class="st4" points="59.3,-412.51 28.36,-385.56 14.68,-407.51 5.7,-407.61 25.91,-373.2 		"/>
		<polygon class="st4" points="52.36,-400.67 30.92,-365.04 27.85,-370.86 		"/>
	</g>
</g>
<g>
	<g>
		<g>
			<path class="st4" d="M32.21-91.99c17,1.26,34.36-5.22,46.42-19.05c8.07-9.25,12.56-20.39,13.6-31.75
				c0.52-5.68,0.17-11.41-1.03-16.97c-1.23-5.69-3.34-11.22-6.33-16.35l1.82-0.94c3.24,5.27,5.55,10.98,6.89,16.88
				c1.32,5.79,1.72,11.77,1.17,17.7c-1.04,11.33-5.53,22.45-13.59,31.68C68.49-96.29,49.99-89.87,32.21-91.99z"/>
			<path class="st4" d="M10.29-111.88c18.67,13.08,44.58,10.23,59.9-7.33c6.36-7.28,9.96-16.03,10.89-24.97l1.73,0.21l0,0
				c-0.76,9.28-4.39,18.4-10.98,25.95C56.05-99.93,29.05-97.44,10.29-111.88z"/>
			<path class="st4" d="M17.89-101.24c19.28,7.66,42.11,2.83,56.52-13.69c7.26-8.32,11.29-18.34,12.21-28.55
				c0.46-5.13,0.13-10.29-0.96-15.32l1.73-0.3c1.26,5.19,1.69,10.55,1.27,15.87c-0.81,10.42-4.86,20.67-12.26,29.14
				C61.49-97,37.57-92.41,17.89-101.24z"/>
			<path class="st4" d="M58.1-89.43c9.25-3.5,17.79-9.27,24.75-17.24c9-10.31,13.98-22.75,15.09-35.42
				c0.54-6.24,0.14-12.53-1.18-18.64c-1.36-6.25-3.67-12.31-6.95-17.96c-3.2-5.52-7.31-10.64-12.32-15.12l1.58-1.49l0.15,0.13
				c5.19,4.53,9.45,9.73,12.75,15.36c3.43,5.85,5.84,12.16,7.2,18.65c1.33,6.35,1.67,12.88,0.99,19.34
				c-1.29,12.28-6.24,24.3-14.98,34.31C77.64-98.86,68.24-92.81,58.1-89.43z"/>
			<path class="st4" d="M90.63-206.2c-0.33-0.3-0.66-0.6-1-0.89c-6.19-5.4-12.98-9.68-20.11-12.84c-7.91-3.51-16.24-5.65-24.66-6.45
				c-8.34-0.8-16.76-0.28-24.93,1.53l-0.35-1.76c8.39-1.82,17.03-2.29,25.58-1.4c8.58,0.9,17.06,3.17,25.09,6.85
				c6.89,3.16,13.46,7.35,19.46,12.59c0.59,0.52,1.18,1.04,1.76,1.58c6.27,5.8,11.41,12.37,15.42,19.45
				c4.19,7.4,7.13,15.35,8.79,23.53c1.63,7.98,2.05,16.17,1.23,24.28c-1.59,15.85-7.88,31.38-19.02,44.37
				c11.08-13,17.27-28.56,18.71-44.41c0.73-8.07,0.24-16.22-1.47-24.14c-1.74-8.09-4.75-15.93-9-23.23
				C102.08-194.1,96.91-200.54,90.63-206.2z"/>
			<path class="st4" d="M86.43-202.24l-0.08-0.07c-6.1-5.32-12.84-9.46-19.92-12.41c-7.31-3.05-14.98-4.85-22.72-5.41l0.44-2.42
				c7.97,0.69,15.87,2.68,23.36,6c6.62,2.93,12.92,6.89,18.65,11.9c0.49,0.43,0.97,0.86,1.45,1.3c5.92,5.44,10.75,11.63,14.47,18.31
				c3.86,6.92,6.54,14.36,8,22.01c1.01,5.28,1.44,10.65,1.29,16.02c0.02-5.36-0.56-10.71-1.71-15.95c-1.65-7.53-4.5-14.83-8.51-21.6
				C97.32-191.04,92.4-197.02,86.43-202.24z"/>
			<path class="st4" d="M85.17-100.17c0.9-0.92,1.78-1.87,2.64-2.86c9.73-11.15,15.13-24.6,16.33-38.29
				c0.6-6.85,0.15-13.75-1.33-20.46c-1.51-6.84-4.09-13.48-7.73-19.64c-3.51-5.95-8.01-11.46-13.47-16.27
				c-0.08-0.07-0.16-0.14-0.24-0.21c-5.57-4.86-11.71-8.64-18.17-11.35l1.17-1.98c6.67,2.73,13.02,6.59,18.76,11.59
				c0.09,0.08,0.19,0.17,0.28,0.25c5.64,4.98,10.25,10.69,13.8,16.87c3.68,6.4,6.24,13.29,7.65,20.39
				c1.37,6.91,1.66,14.01,0.84,21.01c-1.52,13.02-6.85,25.74-16.13,36.37C88.17-103.14,86.7-101.61,85.17-100.17z"/>
		</g>
		<g>
			<path class="st4" d="M32.19-92.01c17,1.26,34.36-5.22,46.42-19.05c8.07-9.25,12.56-20.39,13.6-31.75
				c0.52-5.68,0.17-11.41-1.03-16.97c-1.23-5.69-3.34-11.22-6.33-16.35l1.82-0.94c3.24,5.27,5.55,10.98,6.89,16.88
				c1.32,5.79,1.72,11.77,1.17,17.7c-1.04,11.33-5.53,22.45-13.59,31.68C68.47-96.3,49.98-89.89,32.19-92.01z"/>
			<path class="st4" d="M10.28-111.89c18.67,13.08,44.58,10.23,59.9-7.33c6.36-7.28,9.96-16.03,10.89-24.97l1.73,0.21l0,0
				c-0.76,9.28-4.39,18.4-10.98,25.95C56.04-99.94,29.04-97.46,10.28-111.89z"/>
			<path class="st4" d="M17.88-101.26c19.28,7.66,42.11,2.83,56.52-13.69c7.26-8.32,11.29-18.34,12.21-28.55
				c0.46-5.13,0.13-10.29-0.96-15.32l1.73-0.3c1.26,5.19,1.69,10.55,1.27,15.87c-0.81,10.42-4.86,20.67-12.26,29.14
				C61.48-97.01,37.55-92.43,17.88-101.26z"/>
			<path class="st4" d="M58.09-89.44c9.25-3.5,17.79-9.27,24.75-17.24c9-10.31,13.98-22.75,15.09-35.42
				c0.54-6.24,0.14-12.53-1.18-18.64c-1.36-6.25-3.67-12.31-6.95-17.96c-3.2-5.52-7.31-10.64-12.32-15.12l1.58-1.49l0.15,0.13
				c5.19,4.53,9.45,9.73,12.75,15.36c3.43,5.85,5.84,12.16,7.2,18.65c1.33,6.35,1.67,12.88,0.99,19.34
				c-1.29,12.28-6.24,24.3-14.98,34.31C77.63-98.88,68.23-92.83,58.09-89.44z"/>
			<path class="st4" d="M90.62-206.22c-0.33-0.3-0.66-0.6-1-0.89c-6.19-5.4-12.98-9.68-20.11-12.84
				c-7.91-3.51-16.24-5.65-24.66-6.45c-8.34-0.8-16.76-0.28-24.93,1.53l-0.35-1.76c8.39-1.82,17.03-2.29,25.58-1.4
				c8.58,0.9,17.06,3.17,25.09,6.85c6.89,3.16,13.46,7.35,19.46,12.59c0.59,0.52,1.18,1.04,1.76,1.58
				c6.27,5.8,11.41,12.37,15.42,19.45c4.19,7.4,7.13,15.35,8.79,23.53c1.63,7.98,2.05,16.17,1.23,24.28
				c-1.59,15.85-7.88,31.38-19.02,44.37c11.08-13,17.27-28.56,18.71-44.41c0.73-8.07,0.24-16.22-1.47-24.14
				c-1.74-8.09-4.75-15.93-9-23.23C102.07-194.11,96.9-200.56,90.62-206.22z"/>
			<path class="st4" d="M86.42-202.26l-0.08-0.07c-6.1-5.32-12.84-9.46-19.92-12.41c-7.31-3.05-14.98-4.85-22.72-5.41l0.44-2.42
				c7.97,0.69,15.87,2.68,23.36,6c6.62,2.93,12.92,6.89,18.65,11.9c0.49,0.43,0.97,0.86,1.45,1.3c5.92,5.44,10.75,11.63,14.47,18.31
				c3.86,6.92,6.54,14.36,8,22.01c1.01,5.28,1.44,10.65,1.29,16.02c0.02-5.36-0.56-10.71-1.71-15.95c-1.65-7.53-4.5-14.83-8.51-21.6
				C97.3-191.05,92.39-197.03,86.42-202.26z"/>
			<path class="st4" d="M85.16-100.18c0.9-0.92,1.78-1.87,2.64-2.86c9.73-11.15,15.13-24.6,16.33-38.29
				c0.6-6.85,0.15-13.75-1.33-20.46c-1.51-6.84-4.09-13.48-7.73-19.64c-3.51-5.95-8.01-11.46-13.47-16.27
				c-0.08-0.07-0.16-0.14-0.24-0.21c-5.57-4.86-11.71-8.64-18.17-11.35l1.17-1.98c6.67,2.73,13.02,6.59,18.76,11.59
				c0.09,0.08,0.19,0.17,0.28,0.25c5.64,4.98,10.25,10.69,13.8,16.87c3.68,6.4,6.24,13.29,7.65,20.39
				c1.37,6.91,1.66,14.01,0.84,21.01c-1.52,13.02-6.85,25.74-16.13,36.37C88.15-103.16,86.69-101.63,85.16-100.18z"/>
		</g>
	</g>
	<g>
		<polygon class="st3" points="26.13,-163.3 28.99,-157.68 62.58,-187.8 		"/>
		<polygon class="st3" points="59.51,-181.47 28.58,-154.52 14.9,-176.47 5.91,-176.57 26.13,-142.16 		"/>
		<polygon class="st3" points="52.57,-169.63 31.13,-134 28.07,-139.82 		"/>
	</g>
</g>
<g>
	<g>
		<g>
			<path class="st3" d="M31.66,141.76c17,1.26,34.36-5.22,46.42-19.05c8.07-9.25,12.56-20.39,13.6-31.75
				c0.52-5.68,0.17-11.41-1.03-16.97c-1.23-5.69-3.34-11.22-6.33-16.35l1.82-0.94c3.24,5.27,5.55,10.98,6.89,16.88
				c1.32,5.79,1.72,11.77,1.17,17.7c-1.04,11.33-5.53,22.45-13.59,31.68C67.95,137.47,49.45,143.89,31.66,141.76z"/>
			<path class="st3" d="M9.75,121.88c18.67,13.08,44.58,10.23,59.9-7.33c6.36-7.28,9.96-16.03,10.89-24.97l1.73,0.21l0,0
				c-0.76,9.28-4.39,18.4-10.98,25.95C55.51,133.83,28.51,136.32,9.75,121.88z"/>
			<path class="st3" d="M17.35,132.52c19.28,7.66,42.11,2.83,56.52-13.69c7.26-8.32,11.29-18.34,12.21-28.55
				c0.46-5.13,0.13-10.29-0.96-15.32l1.73-0.3c1.26,5.19,1.69,10.55,1.27,15.87c-0.81,10.42-4.86,20.67-12.26,29.14
				C60.95,136.76,37.03,141.35,17.35,132.52z"/>
			<path class="st3" d="M57.56,144.33c9.25-3.5,17.79-9.27,24.75-17.24c9-10.31,13.98-22.75,15.09-35.42
				c0.54-6.24,0.14-12.53-1.18-18.64c-1.36-6.25-3.67-12.31-6.95-17.96c-3.2-5.52-7.31-10.64-12.32-15.12l1.58-1.49l0.15,0.13
				c5.19,4.53,9.45,9.73,12.75,15.36c3.43,5.85,5.84,12.16,7.2,18.65c1.33,6.35,1.67,12.88,0.99,19.34
				c-1.29,12.28-6.24,24.3-14.98,34.31C77.1,134.9,67.7,140.95,57.56,144.33z"/>
			<path class="st3" d="M90.09,27.56c-0.33-0.3-0.66-0.6-1-0.89c-6.19-5.4-12.98-9.68-20.11-12.84c-7.91-3.51-16.24-5.65-24.66-6.45
				c-8.34-0.8-16.76-0.28-24.93,1.53l-0.35-1.76c8.39-1.82,17.03-2.29,25.58-1.4c8.58,0.9,17.06,3.17,25.09,6.85
				c6.89,3.16,13.46,7.35,19.46,12.59c0.59,0.52,1.18,1.04,1.76,1.58c6.27,5.8,11.41,12.37,15.42,19.45
				c4.19,7.4,7.13,15.35,8.79,23.53c1.63,7.98,2.05,16.17,1.23,24.28c-1.59,15.85-7.88,31.38-19.02,44.37
				c11.08-13,17.27-28.56,18.71-44.41c0.73-8.07,0.24-16.22-1.47-24.14c-1.74-8.09-4.75-15.93-9-23.23
				C101.54,39.66,96.37,33.22,90.09,27.56z"/>
			<path class="st3" d="M85.89,31.52l-0.08-0.07c-6.1-5.32-12.84-9.46-19.92-12.41c-7.31-3.05-14.98-4.85-22.72-5.41l0.44-2.42
				c7.97,0.69,15.87,2.68,23.36,6c6.62,2.93,12.92,6.89,18.65,11.9c0.49,0.43,0.97,0.86,1.45,1.3c5.92,5.44,10.75,11.63,14.47,18.31
				c3.86,6.92,6.54,14.36,8,22.01c1.01,5.28,1.44,10.65,1.29,16.02c0.02-5.36-0.56-10.71-1.71-15.95c-1.65-7.53-4.5-14.83-8.51-21.6
				C96.78,42.72,91.86,36.74,85.89,31.52z"/>
			<path class="st3" d="M84.63,133.59c0.9-0.92,1.78-1.87,2.64-2.86c9.73-11.15,15.13-24.6,16.33-38.29
				c0.6-6.85,0.15-13.75-1.33-20.46c-1.51-6.84-4.09-13.48-7.73-19.64c-3.51-5.95-8.01-11.46-13.47-16.27
				c-0.08-0.07-0.16-0.14-0.24-0.21c-5.57-4.86-11.71-8.64-18.17-11.35l1.17-1.98c6.67,2.73,13.02,6.59,18.76,11.59
				c0.09,0.08,0.19,0.17,0.28,0.25c5.64,4.98,10.25,10.69,13.8,16.87c3.68,6.4,6.24,13.29,7.65,20.39
				c1.37,6.91,1.66,14.01,0.84,21.01c-1.52,13.02-6.85,25.74-16.13,36.37C87.63,130.62,86.16,132.15,84.63,133.59z"/>
		</g>
		<g>
			<path class="st3" d="M31.65,141.75c17,1.26,34.36-5.22,46.42-19.05c8.07-9.25,12.56-20.39,13.6-31.75
				c0.52-5.68,0.17-11.41-1.03-16.97c-1.23-5.69-3.34-11.22-6.33-16.35l1.82-0.94c3.24,5.27,5.55,10.98,6.89,16.88
				c1.32,5.79,1.72,11.77,1.17,17.7c-1.04,11.33-5.53,22.45-13.59,31.68C67.93,137.46,49.44,143.87,31.65,141.75z"/>
			<path class="st3" d="M9.73,121.86c18.67,13.08,44.58,10.23,59.9-7.33c6.36-7.28,9.96-16.03,10.89-24.97l1.73,0.22l0,0
				c-0.76,9.28-4.39,18.4-10.98,25.95C55.5,133.82,28.5,136.3,9.73,121.86z"/>
			<path class="st3" d="M17.33,132.5c19.28,7.66,42.11,2.83,56.52-13.69c7.26-8.32,11.29-18.34,12.21-28.55
				c0.46-5.13,0.13-10.29-0.96-15.32l1.73-0.3c1.26,5.19,1.69,10.55,1.27,15.87c-0.81,10.42-4.86,20.67-12.26,29.14
				C60.94,136.75,37.01,141.33,17.33,132.5z"/>
			<path class="st3" d="M57.55,144.32c9.25-3.5,17.79-9.27,24.75-17.24c9-10.31,13.98-22.75,15.09-35.42
				c0.54-6.24,0.14-12.53-1.18-18.64c-1.36-6.25-3.67-12.31-6.95-17.96c-3.2-5.52-7.31-10.64-12.32-15.12l1.58-1.49l0.15,0.13
				c5.19,4.53,9.45,9.73,12.75,15.36c3.43,5.85,5.84,12.16,7.2,18.65c1.33,6.35,1.67,12.88,0.99,19.34
				c-1.29,12.28-6.24,24.3-14.98,34.31C77.09,134.88,67.69,140.93,57.55,144.32z"/>
			<path class="st3" d="M90.08,27.54c-0.33-0.3-0.66-0.6-1-0.89c-6.19-5.4-12.98-9.68-20.11-12.84c-7.91-3.51-16.24-5.65-24.66-6.45
				c-8.34-0.8-16.76-0.28-24.93,1.53l-0.35-1.76c8.39-1.82,17.03-2.29,25.58-1.4c8.58,0.9,17.06,3.17,25.09,6.85
				c6.89,3.16,13.46,7.35,19.46,12.59c0.59,0.52,1.18,1.04,1.76,1.58c6.27,5.8,11.41,12.37,15.42,19.45
				c4.19,7.4,7.13,15.35,8.79,23.53c1.63,7.98,2.05,16.17,1.23,24.28c-1.59,15.85-7.88,31.38-19.02,44.37
				c11.08-13,17.27-28.56,18.71-44.41c0.73-8.07,0.24-16.22-1.47-24.14c-1.74-8.09-4.75-15.93-9-23.23
				C101.53,39.65,96.36,33.2,90.08,27.54z"/>
			<path class="st3" d="M85.88,31.5l-0.08-0.07c-6.1-5.32-12.84-9.46-19.92-12.41c-7.31-3.05-14.98-4.85-22.72-5.41l0.44-2.42
				c7.97,0.69,15.87,2.68,23.36,6c6.62,2.93,12.92,6.89,18.65,11.9c0.49,0.43,0.97,0.86,1.45,1.3c5.92,5.44,10.75,11.63,14.47,18.31
				c3.86,6.92,6.54,14.36,8,22.01c1.01,5.28,1.44,10.65,1.29,16.02c0.02-5.36-0.56-10.71-1.71-15.95c-1.65-7.53-4.5-14.83-8.51-21.6
				C96.76,42.71,91.85,36.73,85.88,31.5z"/>
			<path class="st3" d="M84.62,133.58c0.9-0.92,1.78-1.87,2.64-2.86c9.73-11.15,15.13-24.6,16.33-38.29
				c0.6-6.85,0.15-13.75-1.33-20.46c-1.51-6.84-4.09-13.48-7.73-19.64c-3.51-5.95-8.01-11.46-13.47-16.27
				c-0.08-0.07-0.16-0.14-0.24-0.21c-5.57-4.86-11.71-8.64-18.17-11.35l1.17-1.98c6.67,2.73,13.02,6.59,18.76,11.59
				c0.09,0.08,0.19,0.17,0.28,0.25c5.64,4.98,10.25,10.69,13.8,16.87c3.68,6.4,6.24,13.29,7.65,20.39
				c1.37,6.91,1.66,14.01,0.84,21.01c-1.52,13.02-6.85,25.74-16.13,36.37C87.61,130.6,86.14,132.13,84.62,133.58z"/>
		</g>
	</g>
	<g>
		<polygon class="st3" points="25.59,70.46 28.45,76.08 62.03,45.96 		"/>
		<polygon class="st3" points="58.97,52.29 28.04,79.24 14.36,57.29 5.37,57.19 25.59,91.6 		"/>
		<polygon class="st3" points="52.03,64.13 30.59,99.76 27.53,93.94 		"/>
	</g>
</g>
<g>
	<g>
		<g>
			<g>
				<path class="st2" d="M-533.44-809.58c11.2,0.83,22.64-3.44,30.6-12.56c5.32-6.09,8.28-13.44,8.96-20.92
					c0.34-3.74,0.11-7.52-0.68-11.19c-0.81-3.75-2.2-7.4-4.17-10.78l1.2-0.62c2.14,3.47,3.66,7.24,4.54,11.13
					c0.87,3.82,1.13,7.76,0.77,11.66c-0.69,7.47-3.65,14.8-8.96,20.88C-509.53-812.41-521.72-808.18-533.44-809.58z"/>
				<path class="st2" d="M-547.89-822.69c12.3,8.62,29.38,6.74,39.48-4.83c4.19-4.8,6.56-10.57,7.18-16.46l1.14,0.14l0,0
					c-0.5,6.11-2.9,12.13-7.24,17.11C-517.72-814.81-535.52-813.17-547.89-822.69z"/>
				<path class="st2" d="M-542.88-815.68c12.71,5.05,27.75,1.86,37.25-9.02c4.78-5.48,7.44-12.09,8.05-18.82
					c0.3-3.38,0.09-6.78-0.63-10.1l1.14-0.2c0.83,3.42,1.11,6.95,0.84,10.46c-0.54,6.87-3.21,13.62-8.08,19.21
					C-514.14-812.88-529.91-809.86-542.88-815.68z"/>
				<path class="st2" d="M-516.37-807.89c6.1-2.31,11.73-6.11,16.31-11.36c5.93-6.8,9.22-15,9.94-23.34
					c0.36-4.11,0.1-8.26-0.78-12.29c-0.89-4.12-2.42-8.12-4.58-11.84c-2.11-3.64-4.82-7.01-8.12-9.97l1.04-0.98l0.1,0.09
					c3.42,2.99,6.23,6.41,8.4,10.13c2.26,3.85,3.85,8.01,4.75,12.3c0.88,4.18,1.1,8.49,0.65,12.75c-0.85,8.1-4.11,16.02-9.87,22.62
					C-503.5-814.11-509.69-810.12-516.37-807.89z"/>
				<path class="st2" d="M-494.93-884.86c-0.22-0.2-0.44-0.39-0.66-0.59c-4.08-3.56-8.55-6.38-13.25-8.46
					c-5.21-2.31-10.7-3.72-16.25-4.25c-5.49-0.53-11.05-0.18-16.43,1.01l-0.23-1.16c5.53-1.2,11.23-1.51,16.86-0.92
					c5.65,0.59,11.24,2.09,16.53,4.51c4.54,2.08,8.87,4.84,12.83,8.3c0.39,0.34,0.78,0.69,1.16,1.04
					c4.13,3.82,7.52,8.16,10.16,12.82c2.76,4.88,4.7,10.12,5.8,15.51c1.07,5.26,1.35,10.66,0.81,16
					c-1.05,10.45-5.19,20.69-12.54,29.25c7.3-8.57,11.38-18.83,12.33-29.27c0.48-5.32,0.16-10.69-0.97-15.91
					c-1.15-5.33-3.13-10.5-5.93-15.31C-487.39-876.88-490.79-881.13-494.93-884.86z"/>
				<path class="st2" d="M-497.7-882.25l-0.05-0.04c-4.02-3.51-8.46-6.23-13.13-8.18c-4.81-2.01-9.87-3.19-14.97-3.57l0.29-1.59
					c5.26,0.46,10.46,1.77,15.4,3.95c4.36,1.93,8.51,4.54,12.29,7.84c0.32,0.28,0.64,0.57,0.95,0.85c3.9,3.58,7.08,7.67,9.54,12.07
					c2.55,4.56,4.31,9.47,5.27,14.51c0.67,3.48,0.95,7.02,0.85,10.56c0.01-3.53-0.37-7.06-1.12-10.51
					c-1.09-4.96-2.96-9.77-5.61-14.24C-490.53-874.86-493.77-878.8-497.7-882.25z"/>
				<path class="st2" d="M-498.53-814.97c0.6-0.61,1.18-1.23,1.74-1.88c6.41-7.35,9.97-16.21,10.76-25.24
					c0.39-4.51,0.1-9.07-0.88-13.49c-0.99-4.51-2.7-8.89-5.09-12.94c-2.31-3.92-5.28-7.55-8.88-10.73
					c-0.05-0.05-0.11-0.09-0.16-0.14c-3.67-3.2-7.72-5.69-11.98-7.48l0.77-1.3c4.4,1.8,8.58,4.34,12.36,7.64
					c0.06,0.05,0.12,0.11,0.19,0.16c3.72,3.28,6.75,7.05,9.1,11.12c2.43,4.22,4.11,8.76,5.04,13.44c0.91,4.55,1.1,9.23,0.56,13.85
					c-1,8.58-4.52,16.97-10.63,23.97C-496.56-816.93-497.53-815.92-498.53-814.97z"/>
			</g>
			<g>
				<path class="st2" d="M-533.45-809.59c11.2,0.83,22.64-3.44,30.6-12.56c5.32-6.09,8.28-13.44,8.96-20.92
					c0.34-3.74,0.11-7.52-0.68-11.19c-0.81-3.75-2.2-7.4-4.17-10.78l1.2-0.62c2.14,3.47,3.66,7.24,4.54,11.13
					c0.87,3.82,1.13,7.76,0.77,11.66c-0.69,7.47-3.65,14.8-8.96,20.88C-509.54-812.42-521.73-808.19-533.45-809.59z"/>
				<path class="st2" d="M-547.9-822.7c12.3,8.62,29.38,6.74,39.48-4.83c4.19-4.8,6.56-10.57,7.18-16.46l1.14,0.14l0,0
					c-0.5,6.11-2.9,12.13-7.24,17.11C-517.73-814.82-535.53-813.18-547.9-822.7z"/>
				<path class="st2" d="M-542.89-815.69c12.71,5.05,27.75,1.86,37.25-9.02c4.78-5.48,7.44-12.09,8.05-18.82
					c0.3-3.38,0.09-6.78-0.63-10.1l1.14-0.2c0.83,3.42,1.11,6.95,0.84,10.46c-0.54,6.87-3.21,13.62-8.08,19.21
					C-514.15-812.89-529.92-809.87-542.89-815.69z"/>
				<path class="st2" d="M-516.38-807.9c6.1-2.31,11.73-6.11,16.31-11.36c5.93-6.8,9.22-15,9.94-23.34
					c0.36-4.11,0.1-8.26-0.78-12.29c-0.89-4.12-2.42-8.12-4.58-11.84c-2.11-3.64-4.82-7.01-8.12-9.97l1.04-0.98l0.1,0.09
					c3.42,2.99,6.23,6.41,8.4,10.13c2.26,3.85,3.85,8.01,4.75,12.3c0.88,4.18,1.1,8.49,0.65,12.75c-0.85,8.1-4.11,16.02-9.87,22.62
					C-503.51-814.12-509.7-810.13-516.38-807.9z"/>
				<path class="st2" d="M-494.94-884.87c-0.22-0.2-0.44-0.39-0.66-0.59c-4.08-3.56-8.55-6.38-13.25-8.46
					c-5.21-2.31-10.7-3.72-16.25-4.25c-5.49-0.53-11.05-0.18-16.43,1.01l-0.23-1.16c5.53-1.2,11.23-1.51,16.86-0.92
					c5.65,0.59,11.24,2.09,16.53,4.51c4.54,2.08,8.87,4.84,12.83,8.3c0.39,0.34,0.78,0.69,1.16,1.04
					c4.13,3.82,7.52,8.16,10.16,12.82c2.76,4.88,4.7,10.12,5.8,15.51c1.07,5.26,1.35,10.66,0.81,16
					c-1.05,10.45-5.19,20.69-12.54,29.25c7.3-8.57,11.38-18.83,12.33-29.27c0.48-5.32,0.16-10.69-0.97-15.91
					c-1.15-5.33-3.13-10.5-5.93-15.31C-487.39-876.89-490.8-881.14-494.94-884.87z"/>
				<path class="st2" d="M-497.71-882.26l-0.05-0.04c-4.02-3.51-8.46-6.23-13.13-8.18c-4.81-2.01-9.87-3.19-14.97-3.57l0.29-1.59
					c5.26,0.46,10.46,1.77,15.4,3.95c4.36,1.93,8.51,4.54,12.29,7.84c0.32,0.28,0.64,0.57,0.95,0.85c3.9,3.58,7.08,7.67,9.54,12.07
					c2.55,4.56,4.31,9.47,5.27,14.51c0.67,3.48,0.95,7.02,0.85,10.56c0.01-3.53-0.37-7.06-1.12-10.51
					c-1.09-4.96-2.96-9.77-5.61-14.24C-490.54-874.87-493.78-878.81-497.71-882.26z"/>
				<path class="st2" d="M-498.54-814.98c0.6-0.61,1.18-1.23,1.74-1.88c6.41-7.35,9.97-16.21,10.76-25.24
					c0.39-4.51,0.1-9.07-0.88-13.49c-0.99-4.51-2.7-8.89-5.09-12.94c-2.31-3.92-5.28-7.55-8.88-10.73
					c-0.05-0.05-0.11-0.09-0.16-0.14c-3.67-3.2-7.72-5.69-11.98-7.48l0.77-1.3c4.4,1.8,8.58,4.34,12.36,7.64
					c0.06,0.05,0.12,0.11,0.19,0.16c3.72,3.28,6.75,7.05,9.1,11.12c2.43,4.22,4.11,8.76,5.04,13.44c0.91,4.55,1.1,9.23,0.56,13.85
					c-1,8.58-4.52,16.97-10.63,23.97C-496.57-816.94-497.53-815.93-498.54-814.98z"/>
			</g>
		</g>
		<g>
			<polygon class="st3" points="-537.45,-856.58 -535.56,-852.88 -513.43,-872.73 			"/>
			<polygon class="st3" points="-515.44,-868.56 -535.83,-850.79 -544.85,-865.26 -550.77,-865.33 -537.45,-842.65 			"/>
			<polygon class="st3" points="-520.02,-860.75 -534.15,-837.27 -536.17,-841.1 			"/>
		</g>
	</g>
	<g>
		<rect x="-431.7" y="-835.56" class="st2" width="1.32" height="9.64"/>
		<path class="st2" d="M-407.52-830.86l-0.03-0.02c-0.08-0.06-0.17-0.12-0.26-0.17c0.05-0.06,0.1-0.13,0.15-0.2l0.06-0.09
			c0.29-0.44,0.44-0.95,0.44-1.48c0-1.51-1.23-2.74-2.74-2.74l-8.32,0v1.32h8.32c0.78,0,1.42,0.64,1.42,1.42
			c0,0.78-0.64,1.42-1.42,1.42h-8.32v1.32h9.08c0.78,0,1.42,0.64,1.42,1.42c0,0.78-0.64,1.42-1.42,1.42h-9.08v1.32h9.08
			c1.51,0,2.74-1.23,2.74-2.74C-406.41-829.53-406.82-830.34-407.52-830.86z"/>
		<polygon class="st2" points="-398.13,-831.68 -401.97,-835.56 -403.83,-835.56 -398.79,-830.47 -398.79,-825.92 -397.46,-825.92 
			-397.46,-830.47 -392.42,-835.56 -394.28,-835.56 		"/>
		<path class="st2" d="M-376.74-834.24h1.07h1.07h0.66h1.27h1.27c1.1,0,2.02,0.81,2.18,1.87h1.33c-0.17-1.78-1.69-3.19-3.51-3.19
			h-1.27h-1.27h-0.66h-1.07h-1.07c-1.94,0-3.53,1.59-3.53,3.53v2.58c0,1.94,1.59,3.53,3.53,3.53h1.07h1.07h0.66h1.27h1.27
			c1.83,0,3.34-1.41,3.51-3.19h-1.33c-0.16,1.05-1.08,1.87-2.18,1.87h-1.27h-1.27h-0.66h-1.07h-1.07c-1.21,0-2.21-0.99-2.21-2.21
			v-2.58C-378.95-833.24-377.95-834.24-376.74-834.24z"/>
		<path class="st2" d="M-354.6-830.86l-0.03-0.02c-0.08-0.06-0.17-0.12-0.26-0.17c0.05-0.06,0.1-0.13,0.15-0.2l0.06-0.09
			c0.29-0.44,0.44-0.95,0.44-1.48c0-1.51-1.23-2.74-2.74-2.74l-8.32,0v1.32h8.32c0.78,0,1.42,0.64,1.42,1.42
			c0,0.78-0.64,1.42-1.42,1.42h-8.32v1.32h9.08c0.78,0,1.42,0.64,1.42,1.42c0,0.78-0.64,1.42-1.42,1.42h-9.08v1.32h9.08
			c1.51,0,2.74-1.23,2.74-2.74C-353.49-829.53-353.9-830.34-354.6-830.86z"/>
		<polygon class="st2" points="-345.2,-831.68 -349.04,-835.56 -350.91,-835.56 -345.86,-830.47 -345.86,-825.92 -344.54,-825.92 
			-344.54,-830.47 -339.5,-835.56 -341.36,-835.56 		"/>
		<polygon class="st2" points="-325.75,-835.56 -327.46,-835.56 -330.86,-831.4 -335.6,-831.4 -335.6,-835.56 -336.93,-835.56 
			-336.93,-825.92 -335.6,-825.92 -335.6,-830.08 -330.86,-830.08 -327.46,-825.92 -325.75,-825.92 -329.69,-830.74 		"/>
		<path class="st2" d="M-437.69-829.09c-0.25-0.02-0.5-0.01-0.75-0.01c-1.32,0-2.64,0-4.07,0c0.55-1.08,1.05-2.07,1.56-3.05
			c0.09-0.18,0.2-0.36,0.34-0.62c0.43,0.89,0.82,1.69,1.22,2.49c0.28,0.57,0.73,0.78,1.19,0.56c0.47-0.22,0.58-0.69,0.29-1.28
			c-0.61-1.28-1.23-2.56-1.84-3.84c-0.16-0.34-0.35-0.62-0.8-0.64c-0.46-0.01-0.69,0.24-0.88,0.61c-0.73,1.44-1.47,2.87-2.2,4.3
			c-0.66,1.3-1.33,2.59-1.98,3.9c-0.27,0.54-0.15,1.03,0.29,1.25c0.47,0.23,0.9,0.06,1.18-0.47c0.19-0.36,0.38-0.71,0.54-1.08
			c0.16-0.39,0.39-0.52,0.83-0.52c1.67,0.03,3.34,0.02,5.02,0.01c0.55,0,0.86-0.3,0.85-0.79
			C-436.91-828.79-437.2-829.05-437.69-829.09z"/>
	</g>
	<g>
		<polygon class="st3" points="-437.11,-849.46 -385.61,-849.46 -385.61,-854.78 -431.75,-854.78 		"/>
		<path class="st3" d="M-271.93-855.11l-0.36,0c-1.62-0.02-3.2-0.47-4.56-1.3c-1.25-0.75-2.31-1.81-3.07-3.06
			c-0.83-1.36-1.28-2.94-1.3-4.57v-0.12c0-1.56,0.41-3.1,1.18-4.46c0.77-1.35,1.88-2.48,3.19-3.27c1.36-0.83,2.94-1.28,4.56-1.3
			h33.64v-5.47h-32.48c-0.46,0-0.84,0.02-1.19,0.05c-1.7,0.14-3.34,0.57-4.86,1.27c-1.82,0.83-3.51,2.07-4.87,3.59
			c-1.25,1.39-2.21,3.02-2.86,4.84c-0.55,1.57-0.83,3.21-0.83,4.87c0,1.67,0.28,3.31,0.83,4.87c0.64,1.79,1.59,3.41,2.84,4.8
			l0.07,0.07c1.37,1.53,3,2.72,4.82,3.55c1.53,0.7,3.16,1.13,4.86,1.27c0.35,0.03,0.73,0.05,1.19,0.05h32.48v-5.46"/>
		<rect x="-234.62" y="-878.67" class="st3" width="5.47" height="29.23"/>
		<polygon class="st3" points="-376.5,-878.67 -381.97,-878.67 -381.97,-849.44 -343.22,-849.44 -343.22,-854.9 -376.5,-854.9 		"/>
		<polygon class="st3" points="-387.11,-873.26 -387.11,-878.6 -409.48,-878.6 -414.47,-873.26 		"/>
		<polygon class="st3" points="-425.61,-861.44 -388.27,-861.44 -388.27,-866.77 -420.59,-866.77 		"/>
		<polygon class="st3" points="-226.27,-873.19 -202.51,-873.19 -202.51,-849.44 -197.04,-849.44 -197.04,-873.19 -178.03,-873.19 
			-178.03,-878.67 -226.27,-878.67 		"/>
		<polygon class="st3" points="-132.35,-878.67 -148.36,-866.15 -165.82,-878.67 -174.87,-878.67 -167.36,-873.28 -164.97,-871.56 
			-164.97,-871.56 -160.75,-868.54 -160.75,-868.54 -160.07,-868.05 -150.71,-861.35 -150.71,-849.44 -145.24,-849.44 
			-145.24,-857.15 -145.24,-858.31 -145.24,-858.93 -145.24,-860.05 -145.24,-861.89 -123.79,-878.67 		"/>
		<path class="st3" d="M-288.9-873.62c-0.22-1.51-0.99-2.84-2.18-3.76c-1.04-0.83-2.34-1.29-3.68-1.29h-38.52
			c-0.3,0-0.58,0.02-0.86,0.07c-2.56,0.37-4.62,2.42-5,4.99c-0.04,0.3-0.06,0.57-0.06,0.85v17.41c0,0.3,0.02,0.58,0.07,0.86
			c0.37,2.56,2.42,4.61,4.99,4.99c0.31,0.04,0.59,0.06,0.86,0.06h38.52c1.34,0,2.65-0.46,3.68-1.29c1.17-0.92,1.97-2.29,2.18-3.76
			c0.04-0.32,0.06-0.59,0.06-0.86v-17.41c0-0.27-0.02-0.55-0.06-0.85L-288.9-873.62z M-296.19-872.94c1.25,0.52,2.06,1.73,2.06,3.08
			v11.62c0,0.19-0.02,0.37-0.05,0.55c-0.18,1.13-0.93,2.1-2.01,2.55l0,0c-0.4,0.16-0.84,0.25-1.27,0.25h-32.92
			c-1.84,0-3.34-1.5-3.34-3.34v-11.62c0-1.84,1.5-3.33,3.34-3.33h32.92C-297.04-873.19-296.6-873.11-296.19-872.94z"/>
		<polygon class="st3" points="-420.37,-878.77 -441.68,-856.55 -462.69,-878.77 -469.37,-878.77 -441.83,-849.41 -414.3,-878.77 		
			"/>
	</g>
</g>
<g>
	<g>
		<g>
			<g>
				<path class="st2" d="M-533.16-598.95c11.2,0.83,22.64-3.44,30.6-12.56c5.32-6.09,8.28-13.44,8.96-20.92
					c0.34-3.74,0.11-7.52-0.68-11.19c-0.81-3.75-2.2-7.4-4.17-10.78l1.2-0.62c2.14,3.47,3.66,7.24,4.54,11.13
					c0.87,3.82,1.13,7.76,0.77,11.66c-0.69,7.47-3.65,14.8-8.96,20.88C-509.24-601.78-521.43-597.55-533.16-598.95z"/>
				<path class="st2" d="M-547.6-612.06c12.3,8.62,29.38,6.74,39.48-4.83c4.19-4.8,6.56-10.57,7.18-16.46l1.14,0.14l0,0
					c-0.5,6.11-2.9,12.13-7.24,17.11C-517.44-604.18-535.24-602.54-547.6-612.06z"/>
				<path class="st2" d="M-542.59-605.05c12.71,5.05,27.75,1.86,37.25-9.02c4.78-5.48,7.44-12.09,8.05-18.82
					c0.3-3.38,0.09-6.78-0.63-10.1l1.14-0.2c0.83,3.42,1.11,6.95,0.84,10.46c-0.54,6.87-3.21,13.62-8.08,19.21
					C-513.85-602.25-529.62-599.23-542.59-605.05z"/>
				<path class="st2" d="M-516.09-597.26c6.1-2.31,11.73-6.11,16.31-11.36c5.93-6.8,9.22-15,9.94-23.34
					c0.36-4.11,0.1-8.26-0.78-12.29c-0.89-4.12-2.42-8.12-4.58-11.84c-2.11-3.64-4.82-7.01-8.12-9.97l1.04-0.98l0.1,0.09
					c3.42,2.99,6.23,6.41,8.4,10.13c2.26,3.85,3.85,8.01,4.75,12.3c0.88,4.18,1.1,8.49,0.65,12.75c-0.85,8.1-4.11,16.02-9.87,22.62
					C-503.21-603.48-509.41-599.49-516.09-597.26z"/>
				<path class="st2" d="M-494.65-674.23c-0.22-0.2-0.44-0.39-0.66-0.59c-4.08-3.56-8.55-6.38-13.25-8.46
					c-5.21-2.31-10.7-3.72-16.25-4.25c-5.49-0.53-11.05-0.18-16.43,1.01l-0.23-1.16c5.53-1.2,11.23-1.51,16.86-0.92
					c5.65,0.59,11.24,2.09,16.53,4.51c4.54,2.08,8.87,4.84,12.83,8.3c0.39,0.34,0.78,0.69,1.16,1.04
					c4.13,3.82,7.52,8.16,10.16,12.82c2.76,4.88,4.7,10.12,5.8,15.51c1.07,5.26,1.35,10.66,0.81,16
					c-1.05,10.45-5.19,20.69-12.54,29.25c7.3-8.57,11.38-18.83,12.33-29.27c0.48-5.32,0.16-10.69-0.97-15.91
					c-1.15-5.33-3.13-10.5-5.93-15.31C-487.1-666.25-490.51-670.5-494.65-674.23z"/>
				<path class="st2" d="M-497.42-671.62l-0.05-0.04c-4.02-3.51-8.46-6.23-13.13-8.18c-4.81-2.01-9.87-3.19-14.97-3.57l0.29-1.59
					c5.26,0.46,10.46,1.77,15.4,3.95c4.36,1.93,8.51,4.54,12.29,7.84c0.32,0.28,0.64,0.57,0.95,0.85c3.9,3.58,7.08,7.67,9.54,12.07
					c2.55,4.56,4.31,9.47,5.27,14.51c0.67,3.48,0.95,7.02,0.85,10.56c0.01-3.53-0.37-7.06-1.12-10.51
					c-1.09-4.96-2.96-9.77-5.61-14.24C-490.24-664.23-493.48-668.18-497.42-671.62z"/>
				<path class="st2" d="M-498.25-604.34c0.6-0.61,1.18-1.23,1.74-1.88c6.41-7.35,9.97-16.21,10.76-25.24
					c0.39-4.51,0.1-9.07-0.88-13.49c-0.99-4.51-2.7-8.89-5.09-12.94c-2.31-3.92-5.28-7.55-8.88-10.73
					c-0.05-0.05-0.11-0.09-0.16-0.14c-3.67-3.2-7.72-5.69-11.98-7.48l0.77-1.3c4.4,1.8,8.58,4.34,12.36,7.64
					c0.06,0.05,0.12,0.11,0.19,0.16c3.72,3.28,6.75,7.05,9.1,11.12c2.43,4.22,4.11,8.76,5.04,13.44c0.91,4.55,1.1,9.23,0.56,13.85
					c-1,8.58-4.52,16.97-10.63,23.97C-496.27-606.3-497.24-605.29-498.25-604.34z"/>
			</g>
			<g>
				<path class="st2" d="M-533.17-598.96c11.2,0.83,22.64-3.44,30.6-12.56c5.32-6.09,8.28-13.44,8.96-20.92
					c0.34-3.74,0.11-7.52-0.68-11.19c-0.81-3.75-2.2-7.4-4.17-10.78l1.2-0.62c2.14,3.47,3.66,7.24,4.54,11.13
					c0.87,3.82,1.13,7.76,0.77,11.66c-0.69,7.47-3.65,14.8-8.96,20.88C-509.25-601.79-521.44-597.56-533.17-598.96z"/>
				<path class="st2" d="M-547.61-612.07c12.3,8.62,29.38,6.74,39.48-4.83c4.19-4.8,6.56-10.57,7.18-16.46l1.14,0.14l0,0
					c-0.5,6.11-2.9,12.13-7.24,17.11C-517.45-604.19-535.24-602.55-547.61-612.07z"/>
				<path class="st2" d="M-542.6-605.06c12.71,5.05,27.75,1.86,37.25-9.02c4.78-5.48,7.44-12.09,8.05-18.82
					c0.3-3.38,0.09-6.78-0.63-10.1l1.14-0.2c0.83,3.42,1.11,6.95,0.84,10.46c-0.54,6.87-3.21,13.62-8.08,19.21
					C-513.86-602.26-529.63-599.24-542.6-605.06z"/>
				<path class="st2" d="M-516.1-597.27c6.1-2.31,11.73-6.11,16.31-11.36c5.93-6.8,9.22-15,9.94-23.34
					c0.36-4.11,0.1-8.26-0.78-12.29c-0.89-4.12-2.42-8.12-4.58-11.84c-2.11-3.64-4.82-7.01-8.12-9.97l1.04-0.98l0.1,0.09
					c3.42,2.99,6.23,6.41,8.4,10.13c2.26,3.85,3.85,8.01,4.75,12.3c0.88,4.18,1.1,8.49,0.65,12.75c-0.85,8.1-4.11,16.02-9.87,22.62
					C-503.22-603.49-509.42-599.5-516.1-597.27z"/>
				<path class="st2" d="M-494.66-674.24c-0.22-0.2-0.44-0.39-0.66-0.59c-4.08-3.56-8.55-6.38-13.25-8.46
					c-5.21-2.31-10.7-3.72-16.25-4.25c-5.49-0.53-11.05-0.18-16.43,1.01l-0.23-1.16c5.53-1.2,11.23-1.51,16.86-0.92
					c5.65,0.59,11.24,2.09,16.53,4.51c4.54,2.08,8.87,4.84,12.83,8.3c0.39,0.34,0.78,0.69,1.16,1.04
					c4.13,3.82,7.52,8.16,10.16,12.82c2.76,4.88,4.7,10.12,5.8,15.51c1.07,5.26,1.35,10.66,0.81,16
					c-1.05,10.45-5.19,20.69-12.54,29.25c7.3-8.57,11.38-18.83,12.33-29.27c0.48-5.32,0.16-10.69-0.97-15.91
					c-1.15-5.33-3.13-10.5-5.93-15.31C-487.11-666.26-490.52-670.51-494.66-674.24z"/>
				<path class="st2" d="M-497.43-671.63l-0.05-0.04c-4.02-3.51-8.46-6.23-13.13-8.18c-4.81-2.01-9.87-3.19-14.97-3.57l0.29-1.59
					c5.26,0.46,10.46,1.77,15.4,3.95c4.36,1.93,8.51,4.54,12.29,7.84c0.32,0.28,0.64,0.57,0.95,0.85c3.9,3.58,7.08,7.67,9.54,12.07
					c2.55,4.56,4.31,9.47,5.27,14.51c0.67,3.48,0.95,7.02,0.85,10.56c0.01-3.53-0.37-7.06-1.12-10.51
					c-1.09-4.96-2.96-9.77-5.61-14.24C-490.25-664.24-493.49-668.19-497.43-671.63z"/>
				<path class="st2" d="M-498.25-604.35c0.6-0.61,1.18-1.23,1.74-1.88c6.41-7.35,9.97-16.21,10.76-25.24
					c0.39-4.51,0.1-9.07-0.88-13.49c-0.99-4.51-2.7-8.89-5.09-12.94c-2.31-3.92-5.28-7.55-8.88-10.73
					c-0.05-0.05-0.11-0.09-0.16-0.14c-3.67-3.2-7.72-5.69-11.98-7.48l0.77-1.3c4.4,1.8,8.58,4.34,12.36,7.64
					c0.06,0.05,0.12,0.11,0.19,0.16c3.72,3.28,6.75,7.05,9.1,11.12c2.43,4.22,4.11,8.76,5.04,13.44c0.91,4.55,1.1,9.23,0.56,13.85
					c-1,8.58-4.52,16.97-10.63,23.97C-496.28-606.31-497.25-605.3-498.25-604.35z"/>
			</g>
		</g>
		<g>
			<polygon class="st3" points="-537.16,-645.95 -535.28,-642.25 -513.14,-662.1 			"/>
			<polygon class="st3" points="-515.16,-657.93 -535.55,-640.16 -544.57,-654.63 -550.49,-654.7 -537.16,-632.02 			"/>
			<polygon class="st3" points="-519.73,-650.12 -533.87,-626.64 -535.88,-630.47 			"/>
		</g>
	</g>
	<g>
		<rect x="-431.41" y="-624.93" class="st2" width="1.32" height="9.64"/>
		<path class="st2" d="M-407.24-620.23l-0.03-0.02c-0.08-0.06-0.17-0.12-0.26-0.17c0.05-0.06,0.1-0.13,0.15-0.2l0.06-0.09
			c0.29-0.44,0.44-0.95,0.44-1.48c0-1.51-1.23-2.74-2.74-2.74l-8.32,0v1.32h8.32c0.78,0,1.42,0.64,1.42,1.42
			c0,0.78-0.64,1.42-1.42,1.42h-8.32v1.32h9.08c0.78,0,1.42,0.64,1.42,1.42c0,0.78-0.64,1.42-1.42,1.42h-9.08v1.32h9.08
			c1.51,0,2.74-1.23,2.74-2.74C-406.12-618.9-406.54-619.71-407.24-620.23z"/>
		<polygon class="st2" points="-397.84,-621.05 -401.68,-624.93 -403.55,-624.93 -398.5,-619.84 -398.5,-615.29 -397.18,-615.29 
			-397.18,-619.84 -392.14,-624.93 -394,-624.93 		"/>
		<path class="st2" d="M-376.45-623.61h1.07h1.07h0.66h1.27h1.27c1.1,0,2.02,0.81,2.18,1.87h1.33c-0.17-1.78-1.69-3.19-3.51-3.19
			h-1.27h-1.27h-0.66h-1.07h-1.07c-1.94,0-3.53,1.59-3.53,3.53v2.58c0,1.94,1.59,3.53,3.53,3.53h1.07h1.07h0.66h1.27h1.27
			c1.83,0,3.34-1.41,3.51-3.19h-1.33c-0.16,1.05-1.08,1.87-2.18,1.87h-1.27h-1.27h-0.66h-1.07h-1.07c-1.21,0-2.21-0.99-2.21-2.21
			v-2.58C-378.66-622.62-377.67-623.61-376.45-623.61z"/>
		<path class="st2" d="M-354.31-620.23l-0.03-0.02c-0.08-0.06-0.17-0.12-0.26-0.17c0.05-0.06,0.1-0.13,0.15-0.2l0.06-0.09
			c0.29-0.44,0.44-0.95,0.44-1.48c0-1.51-1.23-2.74-2.74-2.74l-8.32,0v1.32h8.32c0.78,0,1.42,0.64,1.42,1.42
			c0,0.78-0.64,1.42-1.42,1.42h-8.32v1.32h9.08c0.78,0,1.42,0.64,1.42,1.42c0,0.78-0.64,1.42-1.42,1.42h-9.08v1.32h9.08
			c1.51,0,2.74-1.23,2.74-2.74C-353.2-618.9-353.62-619.71-354.31-620.23z"/>
		<polygon class="st2" points="-344.92,-621.05 -348.76,-624.93 -350.62,-624.93 -345.58,-619.84 -345.58,-615.29 -344.26,-615.29 
			-344.26,-619.84 -339.21,-624.93 -341.08,-624.93 		"/>
		<polygon class="st2" points="-325.47,-624.93 -327.18,-624.93 -330.57,-620.77 -335.32,-620.77 -335.32,-624.93 -336.64,-624.93 
			-336.64,-615.29 -335.32,-615.29 -335.32,-619.45 -330.57,-619.45 -327.18,-615.29 -325.47,-615.29 -329.41,-620.11 		"/>
		<path class="st2" d="M-437.4-618.46c-0.25-0.02-0.5-0.01-0.75-0.01c-1.32,0-2.64,0-4.07,0c0.55-1.08,1.05-2.07,1.56-3.05
			c0.09-0.18,0.2-0.36,0.34-0.62c0.43,0.89,0.82,1.69,1.22,2.49c0.28,0.57,0.73,0.78,1.19,0.56c0.47-0.22,0.58-0.69,0.29-1.28
			c-0.61-1.28-1.23-2.56-1.84-3.84c-0.16-0.34-0.35-0.62-0.8-0.64c-0.46-0.01-0.69,0.24-0.88,0.61c-0.73,1.44-1.47,2.87-2.2,4.3
			c-0.66,1.3-1.33,2.59-1.98,3.9c-0.27,0.54-0.15,1.03,0.29,1.25c0.47,0.23,0.9,0.06,1.18-0.47c0.19-0.36,0.38-0.71,0.54-1.08
			c0.16-0.39,0.39-0.52,0.83-0.52c1.67,0.03,3.34,0.02,5.02,0.01c0.55,0,0.86-0.3,0.85-0.79
			C-436.63-618.16-436.91-618.42-437.4-618.46z"/>
	</g>
	<g>
		<polygon class="st3" points="-436.82,-638.83 -385.32,-638.83 -385.32,-644.15 -431.46,-644.15 		"/>
		<path class="st3" d="M-271.65-644.48l-0.36,0c-1.62-0.02-3.2-0.47-4.56-1.3c-1.25-0.75-2.31-1.81-3.07-3.06
			c-0.83-1.36-1.28-2.94-1.3-4.57v-0.12c0-1.56,0.41-3.1,1.18-4.46c0.77-1.35,1.88-2.48,3.19-3.27c1.36-0.83,2.94-1.28,4.56-1.3
			h33.64v-5.47h-32.48c-0.46,0-0.84,0.02-1.19,0.05c-1.7,0.14-3.34,0.57-4.86,1.27c-1.82,0.83-3.51,2.07-4.87,3.59
			c-1.25,1.39-2.21,3.02-2.86,4.84c-0.55,1.57-0.83,3.21-0.83,4.87c0,1.67,0.28,3.31,0.83,4.87c0.64,1.79,1.59,3.41,2.84,4.8
			l0.07,0.07c1.37,1.53,3,2.72,4.82,3.55c1.53,0.7,3.16,1.13,4.86,1.27c0.35,0.03,0.73,0.05,1.19,0.05h32.48v-5.46"/>
		<rect x="-234.34" y="-668.04" class="st3" width="5.47" height="29.23"/>
		<polygon class="st3" points="-376.21,-668.04 -381.68,-668.04 -381.68,-638.81 -342.93,-638.81 -342.93,-644.27 -376.21,-644.27 
					"/>
		<polygon class="st3" points="-386.82,-662.63 -386.82,-667.97 -409.2,-667.97 -414.19,-662.63 		"/>
		<polygon class="st3" points="-425.33,-650.81 -387.98,-650.81 -387.98,-656.15 -420.3,-656.14 		"/>
		<polygon class="st3" points="-225.99,-662.56 -202.23,-662.56 -202.23,-638.81 -196.76,-638.81 -196.76,-662.56 -177.74,-662.56 
			-177.74,-668.04 -225.99,-668.04 		"/>
		<polygon class="st3" points="-132.07,-668.04 -148.08,-655.52 -165.53,-668.04 -174.59,-668.04 -167.08,-662.65 -164.69,-660.93 
			-164.69,-660.93 -160.47,-657.91 -160.47,-657.91 -159.78,-657.43 -150.43,-650.72 -150.43,-638.81 -144.96,-638.81 
			-144.96,-646.52 -144.96,-647.68 -144.96,-648.3 -144.96,-649.42 -144.96,-651.26 -123.51,-668.04 		"/>
		<path class="st3" d="M-288.61-662.99c-0.22-1.51-0.99-2.84-2.18-3.76c-1.04-0.83-2.34-1.29-3.68-1.29h-38.52
			c-0.3,0-0.58,0.02-0.86,0.07c-2.56,0.37-4.62,2.42-5,4.99c-0.04,0.3-0.06,0.57-0.06,0.85v17.41c0,0.3,0.02,0.58,0.07,0.86
			c0.37,2.56,2.42,4.61,4.99,4.99c0.31,0.04,0.59,0.06,0.86,0.06h38.52c1.34,0,2.65-0.46,3.68-1.29c1.17-0.92,1.97-2.29,2.18-3.76
			c0.04-0.32,0.06-0.59,0.06-0.86v-17.41c0-0.27-0.02-0.55-0.06-0.85L-288.61-662.99z M-295.9-662.31c1.25,0.52,2.06,1.73,2.06,3.08
			v11.62c0,0.19-0.02,0.37-0.05,0.55c-0.18,1.13-0.93,2.1-2.01,2.55l0,0c-0.4,0.16-0.84,0.25-1.27,0.25h-32.92
			c-1.84,0-3.34-1.5-3.34-3.34v-11.62c0-1.84,1.5-3.33,3.34-3.33h32.92C-296.75-662.56-296.31-662.48-295.9-662.31z"/>
		<polygon class="st3" points="-420.08,-668.14 -441.39,-645.92 -462.41,-668.14 -469.08,-668.14 -441.55,-638.78 -414.01,-668.14 
					"/>
	</g>
</g>
<g>
	<g>
		<g>
			<g>
				<path class="st4" d="M-533.44-386.02c11.2,0.83,22.64-3.44,30.6-12.56c5.32-6.09,8.28-13.44,8.96-20.92
					c0.34-3.74,0.11-7.52-0.68-11.19c-0.81-3.75-2.2-7.4-4.17-10.78l1.2-0.62c2.14,3.47,3.66,7.24,4.54,11.13
					c0.87,3.82,1.13,7.76,0.77,11.66c-0.69,7.47-3.65,14.8-8.96,20.88C-509.53-388.85-521.72-384.62-533.44-386.02z"/>
				<path class="st4" d="M-547.89-399.12c12.3,8.62,29.38,6.74,39.48-4.83c4.19-4.8,6.56-10.57,7.18-16.46l1.14,0.14l0,0
					c-0.5,6.11-2.9,12.13-7.24,17.11C-517.72-391.25-535.52-389.61-547.89-399.12z"/>
				<path class="st4" d="M-542.88-392.11c12.71,5.05,27.75,1.86,37.25-9.02c4.78-5.48,7.44-12.09,8.05-18.82
					c0.3-3.38,0.09-6.79-0.63-10.1l1.14-0.2c0.83,3.42,1.11,6.95,0.84,10.46c-0.54,6.87-3.21,13.62-8.08,19.21
					C-514.14-389.31-529.91-386.29-542.88-392.11z"/>
				<path class="st4" d="M-516.37-384.33c6.1-2.31,11.73-6.11,16.31-11.36c5.93-6.8,9.22-15,9.94-23.34
					c0.36-4.11,0.1-8.26-0.78-12.29c-0.89-4.12-2.42-8.12-4.58-11.84c-2.11-3.64-4.82-7.01-8.12-9.97l1.04-0.98l0.1,0.09
					c3.42,2.99,6.23,6.41,8.4,10.13c2.26,3.85,3.85,8.01,4.75,12.3c0.88,4.18,1.1,8.49,0.65,12.75c-0.85,8.1-4.11,16.02-9.87,22.62
					C-503.5-390.54-509.69-386.56-516.37-384.33z"/>
				<path class="st4" d="M-494.93-461.29c-0.22-0.2-0.44-0.39-0.66-0.59c-4.08-3.56-8.55-6.38-13.25-8.46
					c-5.21-2.31-10.7-3.72-16.25-4.25c-5.49-0.53-11.05-0.18-16.43,1.01l-0.23-1.16c5.53-1.2,11.23-1.51,16.86-0.92
					c5.65,0.59,11.24,2.09,16.53,4.51c4.54,2.08,8.87,4.84,12.83,8.3c0.39,0.34,0.78,0.69,1.16,1.04
					c4.13,3.82,7.52,8.16,10.16,12.82c2.76,4.88,4.7,10.12,5.8,15.51c1.07,5.26,1.35,10.66,0.81,16
					c-1.05,10.45-5.19,20.69-12.54,29.25c7.3-8.57,11.38-18.83,12.33-29.27c0.48-5.32,0.16-10.69-0.97-15.91
					c-1.15-5.33-3.13-10.5-5.93-15.31C-487.39-453.31-490.79-457.56-494.93-461.29z"/>
				<path class="st4" d="M-497.7-458.68l-0.05-0.04c-4.02-3.51-8.46-6.23-13.13-8.18c-4.81-2.01-9.87-3.19-14.97-3.57l0.29-1.59
					c5.26,0.46,10.46,1.77,15.4,3.95c4.36,1.93,8.51,4.54,12.29,7.84c0.32,0.28,0.64,0.57,0.95,0.85c3.9,3.58,7.08,7.67,9.54,12.07
					c2.55,4.56,4.31,9.47,5.27,14.51c0.67,3.48,0.95,7.02,0.85,10.56c0.01-3.53-0.37-7.06-1.12-10.51
					c-1.09-4.96-2.96-9.77-5.61-14.24C-490.53-451.3-493.77-455.24-497.7-458.68z"/>
				<path class="st4" d="M-498.53-391.4c0.6-0.61,1.18-1.23,1.74-1.88c6.41-7.35,9.97-16.21,10.76-25.24
					c0.39-4.51,0.1-9.07-0.88-13.49c-0.99-4.51-2.7-8.89-5.09-12.94c-2.31-3.92-5.28-7.55-8.88-10.73
					c-0.05-0.05-0.11-0.09-0.16-0.14c-3.67-3.2-7.72-5.69-11.98-7.48l0.77-1.3c4.4,1.8,8.58,4.34,12.36,7.64
					c0.06,0.05,0.12,0.11,0.19,0.16c3.72,3.28,6.75,7.05,9.1,11.12c2.43,4.22,4.11,8.76,5.04,13.44c0.91,4.55,1.1,9.23,0.56,13.85
					c-1,8.58-4.52,16.97-10.63,23.97C-496.56-393.37-497.53-392.36-498.53-391.4z"/>
			</g>
			<g>
				<path class="st4" d="M-533.45-386.03c11.2,0.83,22.64-3.44,30.6-12.56c5.32-6.09,8.28-13.44,8.96-20.92
					c0.34-3.74,0.11-7.52-0.68-11.19c-0.81-3.75-2.2-7.4-4.17-10.78l1.2-0.62c2.14,3.47,3.66,7.24,4.54,11.13
					c0.87,3.82,1.13,7.76,0.77,11.66c-0.69,7.47-3.65,14.8-8.96,20.88C-509.54-388.86-521.73-384.63-533.45-386.03z"/>
				<path class="st4" d="M-547.9-399.13c12.3,8.62,29.38,6.74,39.48-4.83c4.19-4.8,6.56-10.57,7.18-16.46l1.14,0.14l0,0
					c-0.5,6.11-2.9,12.13-7.24,17.11C-517.73-391.26-535.53-389.62-547.9-399.13z"/>
				<path class="st4" d="M-542.89-392.12c12.71,5.05,27.75,1.86,37.25-9.02c4.78-5.48,7.44-12.09,8.05-18.82
					c0.3-3.38,0.09-6.78-0.63-10.1l1.14-0.2c0.83,3.42,1.11,6.95,0.84,10.46c-0.54,6.87-3.21,13.62-8.08,19.21
					C-514.15-389.32-529.92-386.3-542.89-392.12z"/>
				<path class="st4" d="M-516.38-384.34c6.1-2.31,11.73-6.11,16.31-11.36c5.93-6.8,9.22-15,9.94-23.34
					c0.36-4.11,0.1-8.26-0.78-12.29c-0.89-4.12-2.42-8.12-4.58-11.84c-2.11-3.64-4.82-7.01-8.12-9.97l1.04-0.98l0.1,0.09
					c3.42,2.99,6.23,6.41,8.4,10.13c2.26,3.85,3.85,8.01,4.75,12.3c0.88,4.18,1.1,8.49,0.65,12.75c-0.85,8.1-4.11,16.02-9.87,22.62
					C-503.51-390.55-509.7-386.57-516.38-384.34z"/>
				<path class="st4" d="M-494.94-461.3c-0.22-0.2-0.44-0.39-0.66-0.59c-4.08-3.56-8.55-6.38-13.25-8.46
					c-5.21-2.31-10.7-3.72-16.25-4.25c-5.49-0.53-11.05-0.18-16.43,1.01l-0.23-1.16c5.53-1.2,11.23-1.51,16.86-0.92
					c5.65,0.59,11.24,2.09,16.53,4.51c4.54,2.08,8.87,4.84,12.83,8.3c0.39,0.34,0.78,0.69,1.16,1.04
					c4.13,3.82,7.52,8.16,10.16,12.82c2.76,4.88,4.7,10.12,5.8,15.51c1.07,5.26,1.35,10.66,0.81,16
					c-1.05,10.45-5.19,20.69-12.54,29.25c7.3-8.57,11.38-18.83,12.33-29.27c0.48-5.32,0.16-10.69-0.97-15.91
					c-1.15-5.33-3.13-10.5-5.93-15.31C-487.39-453.32-490.8-457.57-494.94-461.3z"/>
				<path class="st4" d="M-497.71-458.69l-0.05-0.04c-4.02-3.51-8.46-6.23-13.13-8.18c-4.81-2.01-9.87-3.19-14.97-3.57l0.29-1.59
					c5.26,0.46,10.46,1.77,15.4,3.95c4.36,1.93,8.51,4.54,12.29,7.84c0.32,0.28,0.64,0.57,0.95,0.85c3.9,3.58,7.08,7.67,9.54,12.07
					c2.55,4.56,4.31,9.47,5.27,14.51c0.67,3.48,0.95,7.02,0.85,10.56c0.01-3.53-0.37-7.06-1.12-10.51
					c-1.09-4.96-2.96-9.77-5.61-14.24C-490.54-451.31-493.78-455.25-497.71-458.69z"/>
				<path class="st4" d="M-498.54-391.42c0.6-0.61,1.18-1.23,1.74-1.88c6.41-7.35,9.97-16.21,10.76-25.24
					c0.39-4.51,0.1-9.07-0.88-13.49c-0.99-4.51-2.7-8.89-5.09-12.94c-2.31-3.92-5.28-7.55-8.88-10.73
					c-0.05-0.05-0.11-0.09-0.16-0.14c-3.67-3.2-7.72-5.69-11.98-7.48l0.77-1.3c4.4,1.8,8.58,4.34,12.36,7.64
					c0.06,0.05,0.12,0.11,0.19,0.16c3.72,3.28,6.75,7.05,9.1,11.12c2.43,4.22,4.11,8.76,5.04,13.44c0.91,4.55,1.1,9.23,0.56,13.85
					c-1,8.58-4.52,16.97-10.63,23.97C-496.57-393.38-497.53-392.37-498.54-391.42z"/>
			</g>
		</g>
		<g>
			<polygon class="st4" points="-537.45,-433.01 -535.56,-429.31 -513.43,-449.16 			"/>
			<polygon class="st4" points="-515.44,-444.99 -535.83,-427.23 -544.85,-441.69 -550.77,-441.76 -537.45,-419.08 			"/>
			<polygon class="st4" points="-520.02,-437.19 -534.15,-413.7 -536.17,-417.54 			"/>
		</g>
	</g>
	<g>
		<rect x="-431.7" y="-412" class="st4" width="1.32" height="9.64"/>
		<path class="st4" d="M-407.52-407.3l-0.03-0.02c-0.08-0.06-0.17-0.12-0.26-0.17c0.05-0.06,0.1-0.13,0.15-0.2l0.06-0.09
			c0.29-0.44,0.44-0.95,0.44-1.48c0-1.51-1.23-2.74-2.74-2.74l-8.32,0v1.32h8.32c0.78,0,1.42,0.64,1.42,1.42
			c0,0.78-0.64,1.42-1.42,1.42h-8.32v1.32h9.08c0.78,0,1.42,0.64,1.42,1.42c0,0.78-0.64,1.42-1.42,1.42h-9.08v1.32h9.08
			c1.51,0,2.74-1.23,2.74-2.74C-406.41-405.97-406.82-406.78-407.52-407.3z"/>
		<polygon class="st4" points="-398.13,-408.11 -401.97,-412 -403.83,-412 -398.79,-406.9 -398.79,-402.35 -397.46,-402.35 
			-397.46,-406.9 -392.42,-412 -394.28,-412 		"/>
		<path class="st4" d="M-376.74-410.67h1.07h1.07h0.66h1.27h1.27c1.1,0,2.02,0.81,2.18,1.87h1.33c-0.17-1.78-1.69-3.19-3.51-3.19
			h-1.27h-1.27h-0.66h-1.07h-1.07c-1.94,0-3.53,1.59-3.53,3.53v2.58c0,1.94,1.59,3.53,3.53,3.53h1.07h1.07h0.66h1.27h1.27
			c1.83,0,3.34-1.41,3.51-3.19h-1.33c-0.16,1.05-1.08,1.87-2.18,1.87h-1.27h-1.27h-0.66h-1.07h-1.07c-1.21,0-2.21-0.99-2.21-2.21
			v-2.58C-378.95-409.68-377.95-410.67-376.74-410.67z"/>
		<path class="st4" d="M-354.6-407.3l-0.03-0.02c-0.08-0.06-0.17-0.12-0.26-0.17c0.05-0.06,0.1-0.13,0.15-0.2l0.06-0.09
			c0.29-0.44,0.44-0.95,0.44-1.48c0-1.51-1.23-2.74-2.74-2.74l-8.32,0v1.32h8.32c0.78,0,1.42,0.64,1.42,1.42
			c0,0.78-0.64,1.42-1.42,1.42h-8.32v1.32h9.08c0.78,0,1.42,0.64,1.42,1.42c0,0.78-0.64,1.42-1.42,1.42h-9.08v1.32h9.08
			c1.51,0,2.74-1.23,2.74-2.74C-353.49-405.97-353.9-406.78-354.6-407.3z"/>
		<polygon class="st4" points="-345.2,-408.11 -349.04,-412 -350.91,-412 -345.86,-406.9 -345.86,-402.35 -344.54,-402.35 
			-344.54,-406.9 -339.5,-412 -341.36,-412 		"/>
		<polygon class="st4" points="-325.75,-412 -327.46,-412 -330.86,-407.84 -335.6,-407.84 -335.6,-412 -336.93,-412 
			-336.93,-402.35 -335.6,-402.35 -335.6,-406.51 -330.86,-406.51 -327.46,-402.35 -325.75,-402.35 -329.69,-407.17 		"/>
		<path class="st4" d="M-437.69-405.52c-0.25-0.02-0.5-0.01-0.75-0.01c-1.32,0-2.64,0-4.07,0c0.55-1.08,1.05-2.07,1.56-3.05
			c0.09-0.18,0.2-0.36,0.34-0.62c0.43,0.89,0.82,1.69,1.22,2.49c0.28,0.57,0.73,0.78,1.19,0.56c0.47-0.22,0.58-0.69,0.29-1.28
			c-0.61-1.28-1.23-2.56-1.84-3.84c-0.16-0.34-0.35-0.62-0.8-0.64c-0.46-0.01-0.69,0.24-0.88,0.61c-0.73,1.44-1.47,2.87-2.2,4.3
			c-0.66,1.3-1.33,2.59-1.98,3.9c-0.27,0.54-0.15,1.03,0.29,1.25c0.47,0.23,0.9,0.06,1.18-0.47c0.19-0.36,0.38-0.71,0.54-1.08
			c0.16-0.39,0.39-0.52,0.83-0.52c1.67,0.03,3.34,0.02,5.02,0.01c0.55,0,0.86-0.3,0.85-0.79
			C-436.91-405.22-437.2-405.48-437.69-405.52z"/>
	</g>
	<g>
		<polygon class="st4" points="-437.11,-425.9 -385.61,-425.9 -385.61,-431.22 -431.75,-431.22 		"/>
		<path class="st4" d="M-271.93-431.55l-0.36,0c-1.62-0.02-3.2-0.47-4.56-1.3c-1.25-0.75-2.31-1.81-3.07-3.06
			c-0.83-1.36-1.28-2.94-1.3-4.57v-0.12c0-1.56,0.41-3.1,1.18-4.46c0.77-1.35,1.88-2.48,3.19-3.27c1.36-0.83,2.94-1.28,4.56-1.3
			h33.64v-5.47h-32.48c-0.46,0-0.84,0.02-1.19,0.05c-1.7,0.14-3.34,0.57-4.86,1.27c-1.82,0.83-3.51,2.07-4.87,3.59
			c-1.25,1.39-2.21,3.02-2.86,4.84c-0.55,1.57-0.83,3.21-0.83,4.87c0,1.67,0.28,3.31,0.83,4.87c0.64,1.79,1.59,3.41,2.84,4.8
			l0.07,0.07c1.37,1.53,3,2.72,4.82,3.55c1.53,0.7,3.16,1.13,4.86,1.27c0.35,0.03,0.73,0.05,1.19,0.05h32.48v-5.46"/>
		<rect x="-234.62" y="-455.1" class="st4" width="5.47" height="29.23"/>
		<polygon class="st4" points="-376.5,-455.1 -381.97,-455.1 -381.97,-425.87 -343.22,-425.87 -343.22,-431.33 -376.5,-431.33 		"/>
		<polygon class="st4" points="-387.11,-449.7 -387.11,-455.03 -409.48,-455.03 -414.47,-449.7 		"/>
		<polygon class="st4" points="-425.61,-437.88 -388.27,-437.88 -388.27,-443.21 -420.59,-443.2 		"/>
		<polygon class="st4" points="-226.27,-449.63 -202.51,-449.63 -202.51,-425.87 -197.04,-425.87 -197.04,-449.63 -178.03,-449.63 
			-178.03,-455.1 -226.27,-455.1 		"/>
		<polygon class="st4" points="-132.35,-455.1 -148.36,-442.58 -165.82,-455.1 -174.87,-455.1 -167.36,-449.72 -164.97,-448 
			-164.97,-448 -160.75,-444.98 -160.75,-444.98 -160.07,-444.49 -150.71,-437.78 -150.71,-425.87 -145.24,-425.87 -145.24,-433.59 
			-145.24,-434.74 -145.24,-435.37 -145.24,-436.49 -145.24,-438.33 -123.79,-455.1 		"/>
		<path class="st4" d="M-288.9-450.05c-0.22-1.51-0.99-2.84-2.18-3.76c-1.04-0.83-2.34-1.29-3.68-1.29h-38.52
			c-0.3,0-0.58,0.02-0.86,0.07c-2.56,0.37-4.62,2.42-5,4.99c-0.04,0.3-0.06,0.57-0.06,0.85v17.41c0,0.3,0.02,0.58,0.07,0.86
			c0.37,2.56,2.42,4.61,4.99,4.99c0.31,0.04,0.59,0.06,0.86,0.06h38.52c1.34,0,2.65-0.46,3.68-1.29c1.17-0.92,1.97-2.29,2.18-3.76
			c0.04-0.32,0.06-0.59,0.06-0.86v-17.41c0-0.27-0.02-0.55-0.06-0.85L-288.9-450.05z M-296.19-449.38c1.25,0.52,2.06,1.73,2.06,3.08
			v11.62c0,0.19-0.02,0.37-0.05,0.55c-0.18,1.13-0.93,2.1-2.01,2.55l0,0c-0.4,0.16-0.84,0.25-1.27,0.25h-32.92
			c-1.84,0-3.34-1.5-3.34-3.34v-11.62c0-1.84,1.5-3.33,3.34-3.33h32.92C-297.04-449.63-296.6-449.54-296.19-449.38z"/>
		<polygon class="st4" points="-420.37,-455.21 -441.68,-432.98 -462.69,-455.21 -469.37,-455.21 -441.83,-425.84 -414.3,-455.21 		
			"/>
	</g>
</g>
<g>
	<g>
		<g>
			<g>
				<path class="st4" d="M-533.16-170.78c11.2,0.83,22.64-3.44,30.6-12.56c5.32-6.09,8.28-13.44,8.96-20.92
					c0.34-3.74,0.11-7.52-0.68-11.19c-0.81-3.75-2.2-7.4-4.17-10.78l1.2-0.62c2.14,3.47,3.66,7.24,4.54,11.13
					c0.87,3.82,1.13,7.76,0.77,11.66c-0.69,7.47-3.65,14.8-8.96,20.88C-509.24-173.61-521.43-169.38-533.16-170.78z"/>
				<path class="st4" d="M-547.6-183.88c12.3,8.62,29.38,6.74,39.48-4.83c4.19-4.8,6.56-10.57,7.18-16.46l1.14,0.14l0,0
					c-0.5,6.11-2.9,12.13-7.24,17.11C-517.44-176-535.24-174.37-547.6-183.88z"/>
				<path class="st4" d="M-542.59-176.87c12.71,5.05,27.75,1.86,37.25-9.02c4.78-5.48,7.44-12.09,8.05-18.82
					c0.3-3.38,0.09-6.78-0.63-10.1l1.14-0.2c0.83,3.42,1.11,6.95,0.84,10.46c-0.54,6.87-3.21,13.62-8.08,19.21
					C-513.85-174.07-529.62-171.05-542.59-176.87z"/>
				<path class="st4" d="M-516.09-169.08c6.1-2.31,11.73-6.11,16.31-11.36c5.93-6.8,9.22-15,9.94-23.34
					c0.36-4.11,0.1-8.26-0.78-12.29c-0.89-4.12-2.42-8.12-4.58-11.84c-2.11-3.64-4.82-7.01-8.12-9.97l1.04-0.98l0.1,0.09
					c3.42,2.99,6.23,6.41,8.4,10.13c2.26,3.85,3.85,8.01,4.75,12.3c0.88,4.18,1.1,8.49,0.65,12.75c-0.85,8.1-4.11,16.02-9.87,22.62
					C-503.21-175.3-509.41-171.32-516.09-169.08z"/>
				<path class="st4" d="M-494.65-246.05c-0.22-0.2-0.44-0.39-0.66-0.59c-4.08-3.56-8.55-6.38-13.25-8.46
					c-5.21-2.31-10.7-3.72-16.25-4.25c-5.49-0.53-11.05-0.18-16.43,1.01l-0.23-1.16c5.53-1.2,11.23-1.51,16.86-0.92
					c5.65,0.59,11.24,2.09,16.53,4.51c4.54,2.08,8.87,4.84,12.83,8.3c0.39,0.34,0.78,0.69,1.16,1.04
					c4.13,3.82,7.52,8.16,10.16,12.82c2.76,4.88,4.7,10.12,5.8,15.51c1.07,5.26,1.35,10.66,0.81,16
					c-1.05,10.45-5.19,20.69-12.54,29.25c7.3-8.57,11.38-18.83,12.33-29.27c0.48-5.32,0.16-10.69-0.97-15.91
					c-1.15-5.33-3.13-10.5-5.93-15.31C-487.1-238.07-490.51-242.32-494.65-246.05z"/>
				<path class="st4" d="M-497.42-243.44l-0.05-0.04c-4.02-3.51-8.46-6.23-13.13-8.18c-4.81-2.01-9.87-3.19-14.97-3.57l0.29-1.59
					c5.26,0.46,10.46,1.77,15.4,3.95c4.36,1.93,8.51,4.54,12.29,7.84c0.32,0.28,0.64,0.57,0.95,0.85c3.9,3.58,7.08,7.67,9.54,12.07
					c2.55,4.56,4.31,9.47,5.27,14.51c0.67,3.48,0.95,7.02,0.85,10.56c0.01-3.53-0.37-7.06-1.12-10.51
					c-1.09-4.96-2.96-9.77-5.61-14.24C-490.24-236.06-493.48-240-497.42-243.44z"/>
				<path class="st4" d="M-498.25-176.16c0.6-0.61,1.18-1.23,1.74-1.88c6.41-7.35,9.97-16.21,10.76-25.24
					c0.39-4.51,0.1-9.07-0.88-13.49c-0.99-4.51-2.7-8.89-5.09-12.94c-2.31-3.92-5.28-7.55-8.88-10.73
					c-0.05-0.05-0.11-0.09-0.16-0.14c-3.67-3.2-7.72-5.69-11.98-7.48l0.77-1.3c4.4,1.8,8.58,4.34,12.36,7.64
					c0.06,0.05,0.12,0.11,0.19,0.16c3.72,3.28,6.75,7.05,9.1,11.12c2.43,4.22,4.11,8.76,5.04,13.44c0.91,4.55,1.1,9.23,0.56,13.85
					c-1,8.58-4.52,16.97-10.63,23.97C-496.27-178.12-497.24-177.12-498.25-176.16z"/>
			</g>
			<g>
				<path class="st4" d="M-533.17-170.79c11.2,0.83,22.64-3.44,30.6-12.56c5.32-6.09,8.28-13.44,8.96-20.92
					c0.34-3.74,0.11-7.52-0.68-11.19c-0.81-3.75-2.2-7.4-4.17-10.78l1.2-0.62c2.14,3.47,3.66,7.24,4.54,11.13
					c0.87,3.82,1.13,7.76,0.77,11.66c-0.69,7.47-3.65,14.8-8.96,20.88C-509.25-173.62-521.44-169.39-533.17-170.79z"/>
				<path class="st4" d="M-547.61-183.89c12.3,8.62,29.38,6.74,39.48-4.83c4.19-4.8,6.56-10.57,7.18-16.46l1.14,0.14l0,0
					c-0.5,6.11-2.9,12.13-7.24,17.11C-517.45-176.01-535.24-174.38-547.61-183.89z"/>
				<path class="st4" d="M-542.6-176.88c12.71,5.05,27.75,1.86,37.25-9.02c4.78-5.48,7.44-12.09,8.05-18.82
					c0.3-3.38,0.09-6.78-0.63-10.1l1.14-0.2c0.83,3.42,1.11,6.95,0.84,10.46c-0.54,6.87-3.21,13.62-8.08,19.21
					C-513.86-174.08-529.63-171.06-542.6-176.88z"/>
				<path class="st4" d="M-516.1-169.09c6.1-2.31,11.73-6.11,16.31-11.36c5.93-6.8,9.22-15,9.94-23.34
					c0.36-4.11,0.1-8.26-0.78-12.29c-0.89-4.12-2.42-8.12-4.58-11.84c-2.11-3.64-4.82-7.01-8.12-9.97l1.04-0.98l0.1,0.09
					c3.42,2.99,6.23,6.41,8.4,10.13c2.26,3.85,3.85,8.01,4.75,12.3c0.88,4.18,1.1,8.49,0.65,12.75c-0.85,8.1-4.11,16.02-9.87,22.62
					C-503.22-175.31-509.42-171.33-516.1-169.09z"/>
				<path class="st4" d="M-494.66-246.06c-0.22-0.2-0.44-0.39-0.66-0.59c-4.08-3.56-8.55-6.38-13.25-8.46
					c-5.21-2.31-10.7-3.72-16.25-4.25c-5.49-0.53-11.05-0.18-16.43,1.01l-0.23-1.16c5.53-1.2,11.23-1.51,16.86-0.92
					c5.65,0.59,11.24,2.09,16.53,4.51c4.54,2.08,8.87,4.84,12.83,8.3c0.39,0.34,0.78,0.69,1.16,1.04
					c4.13,3.82,7.52,8.16,10.16,12.82c2.76,4.88,4.7,10.12,5.8,15.51c1.07,5.26,1.35,10.66,0.81,16
					c-1.05,10.45-5.19,20.69-12.54,29.25c7.3-8.57,11.38-18.83,12.33-29.27c0.48-5.32,0.16-10.69-0.97-15.91
					c-1.15-5.33-3.13-10.5-5.93-15.31C-487.11-238.08-490.52-242.33-494.66-246.06z"/>
				<path class="st4" d="M-497.43-243.45l-0.05-0.04c-4.02-3.51-8.46-6.23-13.13-8.18c-4.81-2.01-9.87-3.19-14.97-3.57l0.29-1.59
					c5.26,0.46,10.46,1.77,15.4,3.95c4.36,1.93,8.51,4.54,12.29,7.84c0.32,0.28,0.64,0.57,0.95,0.85c3.9,3.58,7.08,7.67,9.54,12.07
					c2.55,4.56,4.31,9.47,5.27,14.51c0.67,3.48,0.95,7.02,0.85,10.56c0.01-3.53-0.37-7.06-1.12-10.51
					c-1.09-4.96-2.96-9.77-5.61-14.24C-490.25-236.07-493.49-240.01-497.43-243.45z"/>
				<path class="st4" d="M-498.25-176.17c0.6-0.61,1.18-1.23,1.74-1.88c6.41-7.35,9.97-16.21,10.76-25.24
					c0.39-4.51,0.1-9.07-0.88-13.49c-0.99-4.51-2.7-8.89-5.09-12.94c-2.31-3.92-5.28-7.55-8.88-10.73
					c-0.05-0.05-0.11-0.09-0.16-0.14c-3.67-3.2-7.72-5.69-11.98-7.48l0.77-1.3c4.4,1.8,8.58,4.34,12.36,7.64
					c0.06,0.05,0.12,0.11,0.19,0.16c3.72,3.28,6.75,7.05,9.1,11.12c2.43,4.22,4.11,8.76,5.04,13.44c0.91,4.55,1.1,9.23,0.56,13.85
					c-1,8.58-4.52,16.97-10.63,23.97C-496.28-178.13-497.25-177.13-498.25-176.17z"/>
			</g>
		</g>
		<g>
			<polygon class="st3" points="-537.16,-217.77 -535.28,-214.07 -513.14,-233.92 			"/>
			<polygon class="st3" points="-515.16,-229.75 -535.55,-211.98 -544.57,-226.45 -550.49,-226.52 -537.16,-203.84 			"/>
			<polygon class="st3" points="-519.73,-221.94 -533.87,-198.46 -535.88,-202.29 			"/>
		</g>
	</g>
	<g>
		<rect x="-431.41" y="-196.75" class="st4" width="1.32" height="9.64"/>
		<path class="st4" d="M-407.24-192.05l-0.03-0.02c-0.08-0.06-0.17-0.12-0.26-0.17c0.05-0.06,0.1-0.13,0.15-0.2l0.06-0.09
			c0.29-0.44,0.44-0.95,0.44-1.48c0-1.51-1.23-2.74-2.74-2.74l-8.32,0v1.32h8.32c0.78,0,1.42,0.64,1.42,1.42
			c0,0.78-0.64,1.42-1.42,1.42h-8.32v1.32h9.08c0.78,0,1.42,0.64,1.42,1.42c0,0.78-0.64,1.42-1.42,1.42h-9.08v1.32h9.08
			c1.51,0,2.74-1.23,2.74-2.74C-406.12-190.72-406.54-191.54-407.24-192.05z"/>
		<polygon class="st4" points="-397.84,-192.87 -401.68,-196.75 -403.55,-196.75 -398.5,-191.66 -398.5,-187.11 -397.18,-187.11 
			-397.18,-191.66 -392.14,-196.75 -394,-196.75 		"/>
		<path class="st4" d="M-376.45-195.43h1.07h1.07h0.66h1.27h1.27c1.1,0,2.02,0.81,2.18,1.87h1.33c-0.17-1.78-1.69-3.19-3.51-3.19
			h-1.27h-1.27h-0.66h-1.07h-1.07c-1.94,0-3.53,1.59-3.53,3.53v2.58c0,1.94,1.59,3.53,3.53,3.53h1.07h1.07h0.66h1.27h1.27
			c1.83,0,3.34-1.41,3.51-3.19h-1.33c-0.16,1.05-1.08,1.87-2.18,1.87h-1.27h-1.27h-0.66h-1.07h-1.07c-1.21,0-2.21-0.99-2.21-2.21
			v-2.58C-378.66-194.44-377.67-195.43-376.45-195.43z"/>
		<path class="st4" d="M-354.31-192.05l-0.03-0.02c-0.08-0.06-0.17-0.12-0.26-0.17c0.05-0.06,0.1-0.13,0.15-0.2l0.06-0.09
			c0.29-0.44,0.44-0.95,0.44-1.48c0-1.51-1.23-2.74-2.74-2.74l-8.32,0v1.32h8.32c0.78,0,1.42,0.64,1.42,1.42
			c0,0.78-0.64,1.42-1.42,1.42h-8.32v1.32h9.08c0.78,0,1.42,0.64,1.42,1.42c0,0.78-0.64,1.42-1.42,1.42h-9.08v1.32h9.08
			c1.51,0,2.74-1.23,2.74-2.74C-353.2-190.72-353.62-191.54-354.31-192.05z"/>
		<polygon class="st4" points="-344.92,-192.87 -348.76,-196.75 -350.62,-196.75 -345.58,-191.66 -345.58,-187.11 -344.26,-187.11 
			-344.26,-191.66 -339.21,-196.75 -341.08,-196.75 		"/>
		<polygon class="st4" points="-325.47,-196.75 -327.18,-196.75 -330.57,-192.59 -335.32,-192.59 -335.32,-196.75 -336.64,-196.75 
			-336.64,-187.11 -335.32,-187.11 -335.32,-191.27 -330.57,-191.27 -327.18,-187.11 -325.47,-187.11 -329.41,-191.93 		"/>
		<path class="st4" d="M-437.4-190.28c-0.25-0.02-0.5-0.01-0.75-0.01c-1.32,0-2.64,0-4.07,0c0.55-1.08,1.05-2.07,1.56-3.05
			c0.09-0.18,0.2-0.36,0.34-0.62c0.43,0.89,0.82,1.69,1.22,2.49c0.28,0.57,0.73,0.78,1.19,0.56c0.47-0.22,0.58-0.69,0.29-1.28
			c-0.61-1.28-1.23-2.56-1.84-3.84c-0.16-0.34-0.35-0.62-0.8-0.64c-0.46-0.01-0.69,0.24-0.88,0.61c-0.73,1.44-1.47,2.87-2.2,4.3
			c-0.66,1.3-1.33,2.59-1.98,3.9c-0.27,0.54-0.15,1.03,0.29,1.25c0.47,0.23,0.9,0.06,1.18-0.47c0.19-0.36,0.38-0.71,0.54-1.08
			c0.16-0.39,0.39-0.52,0.83-0.52c1.67,0.03,3.34,0.02,5.02,0.01c0.55,0,0.86-0.3,0.85-0.79
			C-436.63-189.98-436.91-190.24-437.4-190.28z"/>
	</g>
	<g>
		<polygon class="st3" points="-436.82,-210.65 -385.32,-210.65 -385.32,-215.97 -431.46,-215.97 		"/>
		<path class="st3" d="M-271.65-216.31l-0.36,0c-1.62-0.02-3.2-0.47-4.56-1.3c-1.25-0.75-2.31-1.81-3.07-3.06
			c-0.83-1.36-1.28-2.94-1.3-4.57v-0.12c0-1.56,0.41-3.1,1.18-4.46c0.77-1.35,1.88-2.48,3.19-3.27c1.36-0.83,2.94-1.28,4.56-1.3
			h33.64v-5.47h-32.48c-0.46,0-0.84,0.02-1.19,0.05c-1.7,0.14-3.34,0.57-4.86,1.27c-1.82,0.83-3.51,2.07-4.87,3.59
			c-1.25,1.39-2.21,3.02-2.86,4.84c-0.55,1.57-0.83,3.21-0.83,4.87c0,1.67,0.28,3.31,0.83,4.87c0.64,1.79,1.59,3.41,2.84,4.8
			l0.07,0.07c1.37,1.53,3,2.72,4.82,3.55c1.53,0.7,3.16,1.13,4.86,1.27c0.35,0.03,0.73,0.05,1.19,0.05h32.48v-5.46"/>
		<rect x="-234.34" y="-239.86" class="st3" width="5.47" height="29.23"/>
		<polygon class="st3" points="-376.21,-239.86 -381.68,-239.86 -381.68,-210.63 -342.93,-210.63 -342.93,-216.09 -376.21,-216.09 
					"/>
		<polygon class="st3" points="-386.82,-234.46 -386.82,-239.79 -409.2,-239.79 -414.19,-234.46 		"/>
		<polygon class="st3" points="-425.33,-222.64 -387.98,-222.64 -387.98,-227.97 -420.3,-227.96 		"/>
		<polygon class="st3" points="-225.99,-234.39 -202.23,-234.39 -202.23,-210.63 -196.76,-210.63 -196.76,-234.39 -177.74,-234.39 
			-177.74,-239.86 -225.99,-239.86 		"/>
		<polygon class="st3" points="-132.07,-239.86 -148.08,-227.34 -165.53,-239.86 -174.59,-239.86 -167.08,-234.47 -164.69,-232.76 
			-164.69,-232.76 -160.47,-229.73 -160.47,-229.73 -159.78,-229.25 -150.43,-222.54 -150.43,-210.63 -144.96,-210.63 
			-144.96,-218.35 -144.96,-219.5 -144.96,-220.13 -144.96,-221.24 -144.96,-223.08 -123.51,-239.86 		"/>
		<path class="st3" d="M-288.61-234.81c-0.22-1.51-0.99-2.84-2.18-3.76c-1.04-0.83-2.34-1.29-3.68-1.29h-38.52
			c-0.3,0-0.58,0.02-0.86,0.07c-2.56,0.37-4.62,2.42-5,4.99c-0.04,0.3-0.06,0.57-0.06,0.85v17.41c0,0.3,0.02,0.58,0.07,0.86
			c0.37,2.56,2.42,4.61,4.99,4.99c0.31,0.04,0.59,0.06,0.86,0.06h38.52c1.34,0,2.65-0.46,3.68-1.29c1.17-0.92,1.97-2.29,2.18-3.76
			c0.04-0.32,0.06-0.59,0.06-0.86v-17.41c0-0.27-0.02-0.55-0.06-0.85L-288.61-234.81z M-295.9-234.14c1.25,0.52,2.06,1.73,2.06,3.08
			v11.62c0,0.19-0.02,0.37-0.05,0.55c-0.18,1.13-0.93,2.1-2.01,2.55l0,0c-0.4,0.16-0.84,0.25-1.27,0.25h-32.92
			c-1.84,0-3.34-1.5-3.34-3.34v-11.62c0-1.84,1.5-3.33,3.34-3.33h32.92C-296.75-234.39-296.31-234.3-295.9-234.14z"/>
		<polygon class="st3" points="-420.08,-239.96 -441.39,-217.74 -462.41,-239.96 -469.08,-239.96 -441.55,-210.6 -414.01,-239.96 		
			"/>
	</g>
</g>
<g>
	<g>
		<g>
			<g>
				<path class="st3" d="M-533.44,39.85c11.2,0.83,22.64-3.44,30.6-12.56c5.32-6.09,8.28-13.44,8.96-20.92
					c0.34-3.74,0.11-7.52-0.68-11.19c-0.81-3.75-2.2-7.4-4.17-10.78l1.2-0.62c2.14,3.47,3.66,7.24,4.54,11.13
					c0.87,3.82,1.13,7.76,0.77,11.66c-0.69,7.47-3.65,14.8-8.96,20.88C-509.53,37.02-521.72,41.25-533.44,39.85z"/>
				<path class="st3" d="M-547.89,26.75c12.3,8.62,29.38,6.74,39.48-4.83c4.19-4.8,6.56-10.57,7.18-16.46l1.14,0.14l0,0
					c-0.5,6.11-2.9,12.13-7.24,17.11C-517.72,34.63-535.52,36.26-547.89,26.75z"/>
				<path class="st3" d="M-542.88,33.76c12.71,5.05,27.75,1.86,37.25-9.02c4.78-5.48,7.44-12.09,8.05-18.82
					c0.3-3.38,0.09-6.78-0.63-10.1l1.14-0.2c0.83,3.42,1.11,6.95,0.84,10.46c-0.54,6.87-3.21,13.62-8.08,19.21
					C-514.14,36.56-529.91,39.58-542.88,33.76z"/>
				<path class="st3" d="M-516.37,41.55c6.1-2.31,11.73-6.11,16.31-11.36c5.93-6.8,9.22-15,9.94-23.34
					c0.36-4.11,0.1-8.26-0.78-12.29c-0.89-4.12-2.42-8.12-4.58-11.84c-2.11-3.64-4.82-7.01-8.12-9.97l1.04-0.98l0.1,0.09
					c3.42,2.99,6.23,6.41,8.4,10.13c2.26,3.85,3.85,8.01,4.75,12.3c0.88,4.18,1.1,8.49,0.65,12.75c-0.85,8.1-4.11,16.02-9.87,22.62
					C-503.5,35.33-509.69,39.31-516.37,41.55z"/>
				<path class="st3" d="M-494.93-35.42c-0.22-0.2-0.44-0.39-0.66-0.59c-4.08-3.56-8.55-6.38-13.25-8.46
					c-5.21-2.31-10.7-3.72-16.25-4.25c-5.49-0.53-11.05-0.18-16.43,1.01l-0.23-1.16c5.53-1.2,11.23-1.51,16.86-0.92
					c5.65,0.59,11.24,2.09,16.53,4.51c4.54,2.08,8.87,4.84,12.83,8.3c0.39,0.34,0.78,0.69,1.16,1.04
					c4.13,3.82,7.52,8.16,10.16,12.82c2.76,4.88,4.7,10.12,5.8,15.51c1.07,5.26,1.35,10.66,0.81,16
					c-1.05,10.45-5.19,20.69-12.54,29.25c7.3-8.57,11.38-18.83,12.33-29.27c0.48-5.32,0.16-10.69-0.97-15.91
					c-1.15-5.33-3.13-10.5-5.93-15.31C-487.39-27.44-490.79-31.69-494.93-35.42z"/>
				<path class="st3" d="M-497.7-32.81l-0.05-0.04c-4.02-3.51-8.46-6.23-13.13-8.18c-4.81-2.01-9.87-3.19-14.97-3.57l0.29-1.59
					c5.26,0.46,10.46,1.77,15.4,3.95c4.36,1.93,8.51,4.54,12.29,7.84c0.32,0.28,0.64,0.57,0.95,0.85c3.9,3.58,7.08,7.67,9.54,12.07
					c2.55,4.56,4.31,9.47,5.27,14.51c0.67,3.48,0.95,7.02,0.85,10.56c0.01-3.53-0.37-7.06-1.12-10.51
					c-1.09-4.96-2.96-9.77-5.61-14.24C-490.53-25.43-493.77-29.37-497.7-32.81z"/>
				<path class="st3" d="M-498.53,34.47c0.6-0.61,1.18-1.23,1.74-1.88c6.41-7.35,9.97-16.21,10.76-25.24
					c0.39-4.51,0.1-9.07-0.88-13.49c-0.99-4.51-2.7-8.89-5.09-12.94c-2.31-3.92-5.28-7.55-8.88-10.73
					c-0.05-0.05-0.11-0.09-0.16-0.14c-3.67-3.2-7.72-5.69-11.98-7.48l0.77-1.3c4.4,1.8,8.58,4.34,12.36,7.64
					c0.06,0.05,0.12,0.11,0.19,0.16c3.72,3.28,6.75,7.05,9.1,11.12c2.43,4.22,4.11,8.76,5.04,13.44c0.91,4.55,1.1,9.23,0.56,13.85
					c-1,8.58-4.52,16.97-10.63,23.97C-496.56,32.51-497.53,33.51-498.53,34.47z"/>
			</g>
			<g>
				<path class="st3" d="M-533.45,39.84c11.2,0.83,22.64-3.44,30.6-12.56c5.32-6.09,8.28-13.44,8.96-20.92
					c0.34-3.74,0.11-7.52-0.68-11.19c-0.81-3.75-2.2-7.4-4.17-10.78l1.2-0.62c2.14,3.47,3.66,7.24,4.54,11.13
					c0.87,3.82,1.13,7.76,0.77,11.66c-0.69,7.47-3.65,14.8-8.96,20.88C-509.54,37.01-521.73,41.24-533.45,39.84z"/>
				<path class="st3" d="M-547.9,26.74c12.3,8.62,29.38,6.74,39.48-4.83c4.19-4.8,6.56-10.57,7.18-16.46l1.14,0.14l0,0
					c-0.5,6.11-2.9,12.13-7.24,17.11C-517.73,34.62-535.53,36.25-547.9,26.74z"/>
				<path class="st3" d="M-542.89,33.75c12.71,5.05,27.75,1.86,37.25-9.02c4.78-5.48,7.44-12.09,8.05-18.82
					c0.3-3.38,0.09-6.78-0.63-10.1l1.14-0.2c0.83,3.42,1.11,6.95,0.84,10.46c-0.54,6.87-3.21,13.62-8.08,19.21
					C-514.15,36.55-529.92,39.57-542.89,33.75z"/>
				<path class="st3" d="M-516.38,41.54c6.1-2.31,11.73-6.11,16.31-11.36c5.93-6.8,9.22-15,9.94-23.34
					c0.36-4.11,0.1-8.26-0.78-12.29c-0.89-4.12-2.42-8.12-4.58-11.84c-2.11-3.64-4.82-7.01-8.12-9.97l1.04-0.98l0.1,0.09
					c3.42,2.99,6.23,6.41,8.4,10.13c2.26,3.85,3.85,8.01,4.75,12.3c0.88,4.18,1.1,8.49,0.65,12.75c-0.85,8.1-4.11,16.02-9.87,22.62
					C-503.51,35.32-509.7,39.3-516.38,41.54z"/>
				<path class="st3" d="M-494.94-35.43c-0.22-0.2-0.44-0.39-0.66-0.59c-4.08-3.56-8.55-6.38-13.25-8.46
					c-5.21-2.31-10.7-3.72-16.25-4.25c-5.49-0.53-11.05-0.18-16.43,1.01l-0.23-1.16c5.53-1.2,11.23-1.51,16.86-0.92
					c5.65,0.59,11.24,2.09,16.53,4.51c4.54,2.08,8.87,4.84,12.83,8.3c0.39,0.34,0.78,0.69,1.16,1.04
					c4.13,3.82,7.52,8.16,10.16,12.82c2.76,4.88,4.7,10.12,5.8,15.51c1.07,5.26,1.35,10.66,0.81,16
					c-1.05,10.45-5.19,20.69-12.54,29.25c7.3-8.57,11.38-18.83,12.33-29.27c0.48-5.32,0.16-10.69-0.97-15.91
					c-1.15-5.33-3.13-10.5-5.93-15.31C-487.39-27.45-490.8-31.7-494.94-35.43z"/>
				<path class="st3" d="M-497.71-32.82l-0.05-0.04c-4.02-3.51-8.46-6.23-13.13-8.18c-4.81-2.01-9.87-3.19-14.97-3.57l0.29-1.59
					c5.26,0.46,10.46,1.77,15.4,3.95c4.36,1.93,8.51,4.54,12.29,7.84c0.32,0.28,0.64,0.57,0.95,0.85c3.9,3.58,7.08,7.67,9.54,12.07
					c2.55,4.56,4.31,9.47,5.27,14.51c0.67,3.48,0.95,7.02,0.85,10.56c0.01-3.53-0.37-7.06-1.12-10.51
					c-1.09-4.96-2.96-9.77-5.61-14.24C-490.54-25.44-493.78-29.38-497.71-32.82z"/>
				<path class="st3" d="M-498.54,34.46c0.6-0.61,1.18-1.23,1.74-1.88c6.41-7.35,9.97-16.21,10.76-25.24
					c0.39-4.51,0.1-9.07-0.88-13.49c-0.99-4.51-2.7-8.89-5.09-12.94c-2.31-3.92-5.28-7.55-8.88-10.73
					c-0.05-0.05-0.11-0.09-0.16-0.14c-3.67-3.2-7.72-5.69-11.98-7.48l0.77-1.3c4.4,1.8,8.58,4.34,12.36,7.64
					c0.06,0.05,0.12,0.11,0.19,0.16c3.72,3.28,6.75,7.05,9.1,11.12c2.43,4.22,4.11,8.76,5.04,13.44c0.91,4.55,1.1,9.23,0.56,13.85
					c-1,8.58-4.52,16.97-10.63,23.97C-496.57,32.5-497.53,33.5-498.54,34.46z"/>
			</g>
		</g>
		<g>
			<polygon class="st4" points="-537.45,-7.14 -535.56,-3.44 -513.43,-23.29 			"/>
			<polygon class="st4" points="-515.44,-19.12 -535.83,-1.36 -544.85,-15.82 -550.77,-15.89 -537.45,6.79 			"/>
			<polygon class="st4" points="-520.02,-11.31 -534.15,12.17 -536.17,8.33 			"/>
		</g>
	</g>
	<g>
		<rect x="-431.7" y="13.88" class="st4" width="1.32" height="9.64"/>
		<path class="st4" d="M-407.52,18.58l-0.03-0.02c-0.08-0.06-0.17-0.12-0.26-0.17c0.05-0.06,0.1-0.13,0.15-0.2l0.06-0.09
			c0.29-0.44,0.44-0.95,0.44-1.48c0-1.51-1.23-2.74-2.74-2.74l-8.32,0v1.32h8.32c0.78,0,1.42,0.64,1.42,1.42
			c0,0.78-0.64,1.42-1.42,1.42h-8.32v1.32h9.08c0.78,0,1.42,0.64,1.42,1.42c0,0.78-0.64,1.42-1.42,1.42h-9.08v1.32h9.08
			c1.51,0,2.74-1.23,2.74-2.74C-406.41,19.91-406.82,19.09-407.52,18.58z"/>
		<polygon class="st4" points="-398.13,17.76 -401.97,13.88 -403.83,13.88 -398.79,18.97 -398.79,23.52 -397.46,23.52 
			-397.46,18.97 -392.42,13.88 -394.28,13.88 		"/>
		<path class="st4" d="M-376.74,15.2h1.07h1.07h0.66h1.27h1.27c1.1,0,2.02,0.81,2.18,1.87h1.33c-0.17-1.78-1.69-3.19-3.51-3.19
			h-1.27h-1.27h-0.66h-1.07h-1.07c-1.94,0-3.53,1.59-3.53,3.53v2.58c0,1.94,1.59,3.53,3.53,3.53h1.07h1.07h0.66h1.27h1.27
			c1.83,0,3.34-1.41,3.51-3.19h-1.33c-0.16,1.05-1.08,1.87-2.18,1.87h-1.27h-1.27h-0.66h-1.07h-1.07c-1.21,0-2.21-0.99-2.21-2.21
			v-2.58C-378.95,16.19-377.95,15.2-376.74,15.2z"/>
		<path class="st4" d="M-354.6,18.58l-0.03-0.02c-0.08-0.06-0.17-0.12-0.26-0.17c0.05-0.06,0.1-0.13,0.15-0.2l0.06-0.09
			c0.29-0.44,0.44-0.95,0.44-1.48c0-1.51-1.23-2.74-2.74-2.74l-8.32,0v1.32h8.32c0.78,0,1.42,0.64,1.42,1.42
			c0,0.78-0.64,1.42-1.42,1.42h-8.32v1.32h9.08c0.78,0,1.42,0.64,1.42,1.42c0,0.78-0.64,1.42-1.42,1.42h-9.08v1.32h9.08
			c1.51,0,2.74-1.23,2.74-2.74C-353.49,19.91-353.9,19.09-354.6,18.58z"/>
		<polygon class="st4" points="-345.2,17.76 -349.04,13.88 -350.91,13.88 -345.86,18.97 -345.86,23.52 -344.54,23.52 -344.54,18.97 
			-339.5,13.88 -341.36,13.88 		"/>
		<polygon class="st4" points="-325.75,13.88 -327.46,13.88 -330.86,18.04 -335.6,18.04 -335.6,13.88 -336.93,13.88 -336.93,23.52 
			-335.6,23.52 -335.6,19.36 -330.86,19.36 -327.46,23.52 -325.75,23.52 -329.69,18.7 		"/>
		<path class="st4" d="M-437.69,20.35c-0.25-0.02-0.5-0.01-0.75-0.01c-1.32,0-2.64,0-4.07,0c0.55-1.08,1.05-2.07,1.56-3.05
			c0.09-0.18,0.2-0.36,0.34-0.62c0.43,0.89,0.82,1.69,1.22,2.49c0.28,0.57,0.73,0.78,1.19,0.56c0.47-0.22,0.58-0.69,0.29-1.28
			c-0.61-1.28-1.23-2.56-1.84-3.84c-0.16-0.34-0.35-0.62-0.8-0.64c-0.46-0.01-0.69,0.24-0.88,0.61c-0.73,1.44-1.47,2.87-2.2,4.3
			c-0.66,1.3-1.33,2.59-1.98,3.9c-0.27,0.54-0.15,1.03,0.29,1.25c0.47,0.23,0.9,0.06,1.18-0.47c0.19-0.36,0.38-0.71,0.54-1.08
			c0.16-0.39,0.39-0.52,0.83-0.52c1.67,0.03,3.34,0.02,5.02,0.01c0.55,0,0.86-0.3,0.85-0.79C-436.91,20.65-437.2,20.39-437.69,20.35
			z"/>
	</g>
	<g>
		<polygon class="st3" points="-437.11,-0.02 -385.61,-0.02 -385.61,-5.34 -431.75,-5.34 		"/>
		<path class="st3" d="M-271.93-5.68l-0.36,0c-1.62-0.02-3.2-0.47-4.56-1.3c-1.25-0.75-2.31-1.81-3.07-3.06
			c-0.83-1.36-1.28-2.94-1.3-4.57v-0.12c0-1.56,0.41-3.1,1.18-4.46c0.77-1.35,1.88-2.48,3.19-3.27c1.36-0.83,2.94-1.28,4.56-1.3
			h33.64v-5.47h-32.48c-0.46,0-0.84,0.02-1.19,0.05c-1.7,0.14-3.34,0.57-4.86,1.27c-1.82,0.83-3.51,2.07-4.87,3.59
			c-1.25,1.39-2.21,3.02-2.86,4.84c-0.55,1.57-0.83,3.21-0.83,4.87c0,1.67,0.28,3.31,0.83,4.87c0.64,1.79,1.59,3.41,2.84,4.8
			l0.07,0.07c1.37,1.53,3,2.72,4.82,3.55c1.53,0.7,3.16,1.13,4.86,1.27c0.35,0.03,0.73,0.05,1.19,0.05h32.48v-5.46"/>
		<rect x="-234.62" y="-29.23" class="st3" width="5.47" height="29.23"/>
		<polygon class="st3" points="-376.5,-29.23 -381.97,-29.23 -381.97,0 -343.22,0 -343.22,-5.46 -376.5,-5.46 		"/>
		<polygon class="st3" points="-387.11,-23.83 -387.11,-29.16 -409.48,-29.16 -414.47,-23.83 		"/>
		<polygon class="st3" points="-425.61,-12.01 -388.27,-12.01 -388.27,-17.34 -420.59,-17.33 		"/>
		<polygon class="st3" points="-226.27,-23.76 -202.51,-23.76 -202.51,0 -197.04,0 -197.04,-23.76 -178.03,-23.76 -178.03,-29.23 
			-226.27,-29.23 		"/>
		<polygon class="st3" points="-132.35,-29.23 -148.36,-16.71 -165.82,-29.23 -174.87,-29.23 -167.36,-23.85 -164.97,-22.13 
			-164.97,-22.13 -160.75,-19.1 -160.75,-19.1 -160.07,-18.62 -150.71,-11.91 -150.71,0 -145.24,0 -145.24,-7.72 -145.24,-8.87 
			-145.24,-9.5 -145.24,-10.61 -145.24,-12.46 -123.79,-29.23 		"/>
		<path class="st3" d="M-288.9-24.18c-0.22-1.51-0.99-2.84-2.18-3.76c-1.04-0.83-2.34-1.29-3.68-1.29h-38.52
			c-0.3,0-0.58,0.02-0.86,0.07c-2.56,0.37-4.62,2.42-5,4.99c-0.04,0.3-0.06,0.57-0.06,0.85v17.41c0,0.3,0.02,0.58,0.07,0.86
			c0.37,2.56,2.42,4.61,4.99,4.99c0.31,0.04,0.59,0.06,0.86,0.06h38.52c1.34,0,2.65-0.46,3.68-1.29c1.17-0.92,1.97-2.29,2.18-3.76
			c0.04-0.32,0.06-0.59,0.06-0.86v-17.41c0-0.27-0.02-0.55-0.06-0.85L-288.9-24.18z M-296.19-23.51c1.25,0.52,2.06,1.73,2.06,3.08
			V-8.8c0,0.19-0.02,0.37-0.05,0.55c-0.18,1.13-0.93,2.1-2.01,2.55l0,0c-0.4,0.16-0.84,0.25-1.27,0.25h-32.92
			c-1.84,0-3.34-1.5-3.34-3.34v-11.62c0-1.84,1.5-3.33,3.34-3.33h32.92C-297.04-23.76-296.6-23.67-296.19-23.51z"/>
		<polygon class="st3" points="-420.37,-29.34 -441.68,-7.11 -462.69,-29.34 -469.37,-29.34 -441.83,0.03 -414.3,-29.34 		"/>
	</g>
</g>
<g>
	<g>
		<g>
			<g>
				<path class="st4" d="M-533.44,257.85c11.2,0.83,22.64-3.44,30.6-12.56c5.32-6.09,8.28-13.44,8.96-20.92
					c0.34-3.74,0.11-7.52-0.68-11.19c-0.81-3.75-2.2-7.4-4.17-10.78l1.2-0.62c2.14,3.47,3.66,7.24,4.54,11.13
					c0.87,3.82,1.13,7.76,0.77,11.66c-0.69,7.47-3.65,14.8-8.96,20.88C-509.53,255.02-521.72,259.25-533.44,257.85z"/>
				<path class="st4" d="M-547.89,244.75c12.3,8.62,29.38,6.74,39.48-4.83c4.19-4.8,6.56-10.57,7.18-16.46l1.14,0.14l0,0
					c-0.5,6.11-2.9,12.13-7.24,17.11C-517.72,252.63-535.52,254.26-547.89,244.75z"/>
				<path class="st4" d="M-542.88,251.76c12.71,5.05,27.75,1.86,37.25-9.02c4.78-5.48,7.44-12.09,8.05-18.82
					c0.3-3.38,0.09-6.78-0.63-10.1l1.14-0.2c0.83,3.42,1.11,6.95,0.84,10.46c-0.54,6.87-3.21,13.62-8.08,19.21
					C-514.14,254.56-529.91,257.58-542.88,251.76z"/>
				<path class="st4" d="M-516.37,259.55c6.1-2.31,11.73-6.11,16.31-11.36c5.93-6.8,9.22-15,9.94-23.34
					c0.36-4.11,0.1-8.26-0.78-12.29c-0.89-4.12-2.42-8.12-4.58-11.84c-2.11-3.64-4.82-7.01-8.12-9.97l1.04-0.98l0.1,0.09
					c3.42,2.99,6.23,6.41,8.4,10.13c2.26,3.85,3.85,8.01,4.75,12.3c0.88,4.18,1.1,8.49,0.65,12.75c-0.85,8.1-4.11,16.02-9.87,22.62
					C-503.5,253.33-509.69,257.31-516.37,259.55z"/>
				<path class="st4" d="M-494.93,182.58c-0.22-0.2-0.44-0.39-0.66-0.59c-4.08-3.56-8.55-6.38-13.25-8.46
					c-5.21-2.31-10.7-3.72-16.25-4.25c-5.49-0.53-11.05-0.18-16.43,1.01l-0.23-1.16c5.53-1.2,11.23-1.51,16.86-0.92
					c5.65,0.59,11.24,2.09,16.53,4.51c4.54,2.08,8.87,4.84,12.83,8.3c0.39,0.34,0.78,0.69,1.16,1.04
					c4.13,3.82,7.52,8.16,10.16,12.82c2.76,4.88,4.7,10.12,5.8,15.51c1.07,5.26,1.35,10.66,0.81,16
					c-1.05,10.45-5.19,20.69-12.54,29.25c7.3-8.57,11.38-18.83,12.33-29.27c0.48-5.32,0.16-10.69-0.97-15.91
					c-1.15-5.33-3.13-10.5-5.93-15.31C-487.39,190.56-490.79,186.31-494.93,182.58z"/>
				<path class="st4" d="M-497.7,185.19l-0.05-0.04c-4.02-3.51-8.46-6.23-13.13-8.18c-4.81-2.01-9.87-3.19-14.97-3.57l0.29-1.59
					c5.26,0.46,10.46,1.77,15.4,3.95c4.36,1.93,8.51,4.54,12.29,7.84c0.32,0.28,0.64,0.57,0.95,0.85c3.9,3.58,7.08,7.67,9.54,12.07
					c2.55,4.56,4.31,9.47,5.27,14.51c0.67,3.48,0.95,7.02,0.85,10.56c0.01-3.53-0.37-7.06-1.12-10.51
					c-1.09-4.96-2.96-9.77-5.61-14.24C-490.53,192.57-493.77,188.63-497.7,185.19z"/>
				<path class="st4" d="M-498.53,252.47c0.6-0.61,1.18-1.23,1.74-1.88c6.41-7.35,9.97-16.21,10.76-25.24
					c0.39-4.51,0.1-9.07-0.88-13.49c-0.99-4.51-2.7-8.89-5.09-12.94c-2.31-3.92-5.28-7.55-8.88-10.73
					c-0.05-0.05-0.11-0.09-0.16-0.14c-3.67-3.2-7.72-5.69-11.98-7.48l0.77-1.3c4.4,1.8,8.58,4.34,12.36,7.64
					c0.06,0.05,0.12,0.11,0.19,0.16c3.72,3.28,6.75,7.05,9.1,11.12c2.43,4.22,4.11,8.76,5.04,13.44c0.91,4.55,1.1,9.23,0.56,13.85
					c-1,8.58-4.52,16.97-10.63,23.97C-496.56,250.51-497.53,251.51-498.53,252.47z"/>
			</g>
			<g>
				<path class="st4" d="M-533.45,257.84c11.2,0.83,22.64-3.44,30.6-12.56c5.32-6.09,8.28-13.44,8.96-20.92
					c0.34-3.74,0.11-7.52-0.68-11.19c-0.81-3.75-2.2-7.4-4.17-10.78l1.2-0.62c2.14,3.47,3.66,7.24,4.54,11.13
					c0.87,3.82,1.13,7.76,0.77,11.66c-0.69,7.47-3.65,14.8-8.96,20.88C-509.54,255.01-521.73,259.24-533.45,257.84z"/>
				<path class="st4" d="M-547.9,244.74c12.3,8.62,29.38,6.74,39.48-4.83c4.19-4.8,6.56-10.57,7.18-16.46l1.14,0.14l0,0
					c-0.5,6.11-2.9,12.13-7.24,17.11C-517.73,252.62-535.53,254.25-547.9,244.74z"/>
				<path class="st4" d="M-542.89,251.75c12.71,5.05,27.75,1.86,37.25-9.02c4.78-5.48,7.44-12.09,8.05-18.82
					c0.3-3.38,0.09-6.78-0.63-10.1l1.14-0.2c0.83,3.42,1.11,6.95,0.84,10.46c-0.54,6.87-3.21,13.62-8.08,19.21
					C-514.15,254.55-529.92,257.57-542.89,251.75z"/>
				<path class="st4" d="M-516.38,259.54c6.1-2.31,11.73-6.11,16.31-11.36c5.93-6.8,9.22-15,9.94-23.34
					c0.36-4.11,0.1-8.26-0.78-12.29c-0.89-4.12-2.42-8.12-4.58-11.84c-2.11-3.64-4.82-7.01-8.12-9.97l1.04-0.98l0.1,0.09
					c3.42,2.99,6.23,6.41,8.4,10.13c2.26,3.85,3.85,8.01,4.75,12.3c0.88,4.18,1.1,8.49,0.65,12.75c-0.85,8.1-4.11,16.02-9.87,22.62
					C-503.51,253.32-509.7,257.3-516.38,259.54z"/>
				<path class="st4" d="M-494.94,182.57c-0.22-0.2-0.44-0.39-0.66-0.59c-4.08-3.56-8.55-6.38-13.25-8.46
					c-5.21-2.31-10.7-3.72-16.25-4.25c-5.49-0.53-11.05-0.18-16.43,1.01l-0.23-1.16c5.53-1.2,11.23-1.51,16.86-0.92
					c5.65,0.59,11.24,2.09,16.53,4.51c4.54,2.08,8.87,4.84,12.83,8.3c0.39,0.34,0.78,0.69,1.16,1.04
					c4.13,3.82,7.52,8.16,10.16,12.82c2.76,4.88,4.7,10.12,5.8,15.51c1.07,5.26,1.35,10.66,0.81,16
					c-1.05,10.45-5.19,20.69-12.54,29.25c7.3-8.57,11.38-18.83,12.33-29.27c0.48-5.32,0.16-10.69-0.97-15.91
					c-1.15-5.33-3.13-10.5-5.93-15.31C-487.39,190.55-490.8,186.3-494.94,182.57z"/>
				<path class="st4" d="M-497.71,185.18l-0.05-0.04c-4.02-3.51-8.46-6.23-13.13-8.18c-4.81-2.01-9.87-3.19-14.97-3.57l0.29-1.59
					c5.26,0.46,10.46,1.77,15.4,3.95c4.36,1.93,8.51,4.54,12.29,7.84c0.32,0.28,0.64,0.57,0.95,0.85c3.9,3.58,7.08,7.67,9.54,12.07
					c2.55,4.56,4.31,9.47,5.27,14.51c0.67,3.48,0.95,7.02,0.85,10.56c0.01-3.53-0.37-7.06-1.12-10.51
					c-1.09-4.96-2.96-9.77-5.61-14.24C-490.54,192.56-493.78,188.62-497.71,185.18z"/>
				<path class="st4" d="M-498.54,252.46c0.6-0.61,1.18-1.23,1.74-1.88c6.41-7.35,9.97-16.21,10.76-25.24
					c0.39-4.51,0.1-9.07-0.88-13.49c-0.99-4.51-2.7-8.89-5.09-12.94c-2.31-3.92-5.28-7.55-8.88-10.73
					c-0.05-0.05-0.11-0.09-0.16-0.14c-3.67-3.2-7.72-5.69-11.98-7.48l0.77-1.3c4.4,1.8,8.58,4.34,12.36,7.64
					c0.06,0.05,0.12,0.11,0.19,0.16c3.72,3.28,6.75,7.05,9.1,11.12c2.43,4.22,4.11,8.76,5.04,13.44c0.91,4.55,1.1,9.23,0.56,13.85
					c-1,8.58-4.52,16.97-10.63,23.97C-496.57,250.5-497.53,251.5-498.54,252.46z"/>
			</g>
		</g>
		<g>
			<polygon class="st3" points="-537.45,210.86 -535.56,214.56 -513.43,194.71 			"/>
			<polygon class="st3" points="-515.44,198.88 -535.83,216.64 -544.85,202.18 -550.77,202.11 -537.45,224.79 			"/>
			<polygon class="st3" points="-520.02,206.69 -534.15,230.17 -536.17,226.33 			"/>
		</g>
	</g>
	<g>
		<rect x="-431.7" y="231.88" class="st3" width="1.32" height="9.64"/>
		<path class="st3" d="M-407.52,236.58l-0.03-0.02c-0.08-0.06-0.17-0.12-0.26-0.17c0.05-0.06,0.1-0.13,0.15-0.2l0.06-0.09
			c0.29-0.44,0.44-0.95,0.44-1.48c0-1.51-1.23-2.74-2.74-2.74l-8.32,0v1.32h8.32c0.78,0,1.42,0.64,1.42,1.42
			c0,0.78-0.64,1.42-1.42,1.42h-8.32v1.32h9.08c0.78,0,1.42,0.64,1.42,1.42c0,0.78-0.64,1.42-1.42,1.42h-9.08v1.32h9.08
			c1.51,0,2.74-1.23,2.74-2.74C-406.41,237.91-406.82,237.09-407.52,236.58z"/>
		<polygon class="st3" points="-398.13,235.76 -401.97,231.88 -403.83,231.88 -398.79,236.97 -398.79,241.52 -397.46,241.52 
			-397.46,236.97 -392.42,231.88 -394.28,231.88 		"/>
		<path class="st3" d="M-376.74,233.2h1.07h1.07h0.66h1.27h1.27c1.1,0,2.02,0.81,2.18,1.87h1.33c-0.17-1.78-1.69-3.19-3.51-3.19
			h-1.27h-1.27h-0.66h-1.07h-1.07c-1.94,0-3.53,1.59-3.53,3.53v2.58c0,1.94,1.59,3.53,3.53,3.53h1.07h1.07h0.66h1.27h1.27
			c1.83,0,3.34-1.41,3.51-3.19h-1.33c-0.16,1.05-1.08,1.87-2.18,1.87h-1.27h-1.27h-0.66h-1.07h-1.07c-1.21,0-2.21-0.99-2.21-2.21
			v-2.58C-378.95,234.19-377.95,233.2-376.74,233.2z"/>
		<path class="st3" d="M-354.6,236.58l-0.03-0.02c-0.08-0.06-0.17-0.12-0.26-0.17c0.05-0.06,0.1-0.13,0.15-0.2l0.06-0.09
			c0.29-0.44,0.44-0.95,0.44-1.48c0-1.51-1.23-2.74-2.74-2.74l-8.32,0v1.32h8.32c0.78,0,1.42,0.64,1.42,1.42
			c0,0.78-0.64,1.42-1.42,1.42h-8.32v1.32h9.08c0.78,0,1.42,0.64,1.42,1.42c0,0.78-0.64,1.42-1.42,1.42h-9.08v1.32h9.08
			c1.51,0,2.74-1.23,2.74-2.74C-353.49,237.91-353.9,237.09-354.6,236.58z"/>
		<polygon class="st3" points="-345.2,235.76 -349.04,231.88 -350.91,231.88 -345.86,236.97 -345.86,241.52 -344.54,241.52 
			-344.54,236.97 -339.5,231.88 -341.36,231.88 		"/>
		<polygon class="st3" points="-325.75,231.88 -327.46,231.88 -330.86,236.04 -335.6,236.04 -335.6,231.88 -336.93,231.88 
			-336.93,241.52 -335.6,241.52 -335.6,237.36 -330.86,237.36 -327.46,241.52 -325.75,241.52 -329.69,236.7 		"/>
		<path class="st3" d="M-437.69,238.35c-0.25-0.02-0.5-0.01-0.75-0.01c-1.32,0-2.64,0-4.07,0c0.55-1.08,1.05-2.07,1.56-3.05
			c0.09-0.18,0.2-0.36,0.34-0.62c0.43,0.89,0.82,1.69,1.22,2.49c0.28,0.57,0.73,0.78,1.19,0.56c0.47-0.22,0.58-0.69,0.29-1.28
			c-0.61-1.28-1.23-2.56-1.84-3.84c-0.16-0.34-0.35-0.62-0.8-0.64c-0.46-0.01-0.69,0.24-0.88,0.61c-0.73,1.44-1.47,2.87-2.2,4.3
			c-0.66,1.3-1.33,2.59-1.98,3.9c-0.27,0.54-0.15,1.03,0.29,1.25c0.47,0.23,0.9,0.06,1.18-0.47c0.19-0.36,0.38-0.71,0.54-1.08
			c0.16-0.39,0.39-0.52,0.83-0.52c1.67,0.03,3.34,0.02,5.02,0.01c0.55,0,0.86-0.3,0.85-0.79
			C-436.91,238.65-437.2,238.39-437.69,238.35z"/>
	</g>
	<g>
		<polygon class="st4" points="-437.11,217.98 -385.61,217.98 -385.61,212.66 -431.75,212.66 		"/>
		<path class="st4" d="M-271.93,212.32l-0.36,0c-1.62-0.02-3.2-0.47-4.56-1.3c-1.25-0.75-2.31-1.81-3.07-3.06
			c-0.83-1.36-1.28-2.94-1.3-4.57v-0.12c0-1.56,0.41-3.1,1.18-4.46c0.77-1.35,1.88-2.48,3.19-3.27c1.36-0.83,2.94-1.28,4.56-1.3
			h33.64v-5.47h-32.48c-0.46,0-0.84,0.02-1.19,0.05c-1.7,0.14-3.34,0.57-4.86,1.27c-1.82,0.83-3.51,2.07-4.87,3.59
			c-1.25,1.39-2.21,3.02-2.86,4.84c-0.55,1.57-0.83,3.21-0.83,4.87c0,1.67,0.28,3.31,0.83,4.87c0.64,1.79,1.59,3.41,2.84,4.8
			l0.07,0.07c1.37,1.53,3,2.72,4.82,3.55c1.53,0.7,3.16,1.13,4.86,1.27c0.35,0.03,0.73,0.05,1.19,0.05h32.48v-5.46"/>
		<rect x="-234.62" y="188.77" class="st4" width="5.47" height="29.23"/>
		<polygon class="st4" points="-376.5,188.77 -381.97,188.77 -381.97,218 -343.22,218 -343.22,212.54 -376.5,212.54 		"/>
		<polygon class="st4" points="-387.11,194.17 -387.11,188.84 -409.48,188.84 -414.47,194.17 		"/>
		<polygon class="st4" points="-425.61,205.99 -388.27,205.99 -388.27,200.66 -420.59,200.67 		"/>
		<polygon class="st4" points="-226.27,194.24 -202.51,194.24 -202.51,218 -197.04,218 -197.04,194.24 -178.03,194.24 
			-178.03,188.77 -226.27,188.77 		"/>
		<polygon class="st4" points="-132.35,188.77 -148.36,201.29 -165.82,188.77 -174.87,188.77 -167.36,194.15 -164.97,195.87 
			-164.97,195.87 -160.75,198.9 -160.75,198.9 -160.07,199.38 -150.71,206.09 -150.71,218 -145.24,218 -145.24,210.28 
			-145.24,209.13 -145.24,208.5 -145.24,207.39 -145.24,205.54 -123.79,188.77 		"/>
		<path class="st4" d="M-288.9,193.82c-0.22-1.51-0.99-2.84-2.18-3.76c-1.04-0.83-2.34-1.29-3.68-1.29h-38.52
			c-0.3,0-0.58,0.02-0.86,0.07c-2.56,0.37-4.62,2.42-5,4.99c-0.04,0.3-0.06,0.57-0.06,0.85v17.41c0,0.3,0.02,0.58,0.07,0.86
			c0.37,2.56,2.42,4.61,4.99,4.99c0.31,0.04,0.59,0.06,0.86,0.06h38.52c1.34,0,2.65-0.46,3.68-1.29c1.17-0.92,1.97-2.29,2.18-3.76
			c0.04-0.32,0.06-0.59,0.06-0.86v-17.41c0-0.27-0.02-0.55-0.06-0.85L-288.9,193.82z M-296.19,194.49c1.25,0.52,2.06,1.73,2.06,3.08
			v11.62c0,0.19-0.02,0.37-0.05,0.55c-0.18,1.13-0.93,2.1-2.01,2.55l0,0c-0.4,0.16-0.84,0.25-1.27,0.25h-32.92
			c-1.84,0-3.34-1.5-3.34-3.34v-11.62c0-1.84,1.5-3.33,3.34-3.33h32.92C-297.04,194.24-296.6,194.33-296.19,194.49z"/>
		<polygon class="st4" points="-420.37,188.66 -441.68,210.89 -462.69,188.66 -469.37,188.66 -441.83,218.03 -414.3,188.66 		"/>
	</g>
</g>
</svg>
